<?xml version="1.0" encoding="UTF-8"?>
<svg xmlns="http://www.w3.org/2000/svg">
<symbol viewBox="0 0 40 40">
<path d="m1.4299 0c-0.78851 0-1.4285 0.63995-1.4285 1.4285v37.14c0 0.7885 0.63995 1.4284 1.4285 1.4284h28.522c0.0157 0 0.0314 0.0029 0.0471 0.0029h5.7139c0.0157 0 0.0314-0.0029 0.0471-0.0029h2.8098c0.7886 0 1.4285-0.6399 1.4285-1.4284s-0.6399-1.4285-1.4285-1.4285h-1.4284v-21.427c0-0.79-0.64-1.4257-1.4285-1.4257h-5.7139c-0.7885 0-1.4284 0.6357-1.4284 1.4257v21.427h-2.857v-12.856c0-0.7885-0.6399-1.4285-1.4285-1.4285h-5.7138c-0.7885 0-1.4285 0.64-1.4285 1.4285v12.856h-2.8569v-7.1423c0-0.7886-0.64-1.4285-1.4285-1.4285h-5.7139c-0.78851 0-1.4285 0.6399-1.4285 1.4285v7.1423h-2.8569v-35.712c0-0.78852-0.63995-1.4285-1.4285-1.4285zm14.285 0c-5.5181 0-9.9993 4.4811-9.9993 9.9993 0 5.5182 4.4812 9.9993 9.9993 9.9993 5.5182 0 9.9993-4.4811 9.9993-9.9993 0-5.5182-4.4811-9.9993-9.9993-9.9993zm0 2.8569c3.9426 0 7.1424 3.1998 7.1424 7.1423 0 3.9426-3.1998 7.1423-7.1424 7.1423-3.9425 0-7.1423-3.1997-7.1423-7.1423 0-3.9426 3.1998-7.1423 7.1423-7.1423zm-2.8569 2.8569c-0.7842 0-1.4285 0.64424-1.4285 1.4285s0.6443 1.4285 1.4285 1.4285 1.4285-0.64424 1.4285-1.4285-0.6443-1.4285-1.4285-1.4285zm5.7139 0c-0.3657 0-0.7314 0.13999-1.01 0.41854l-5.7138 5.7139c-0.5571 0.5571-0.5571 1.4627 0 2.0199 0.5571 0.5571 1.4627 0.5571 2.0198 0l5.7139-5.7139c0.5571-0.5571 0.5571-1.4628 0-2.0198-0.2786-0.27855-0.6442-0.41854-1.0099-0.41854zm0 5.7139c-0.7843 0-1.4285 0.6442-1.4285 1.4284 0 0.7843 0.6442 1.4285 1.4285 1.4285 0.7842 0 1.4284-0.6442 1.4284-1.4285 0-0.7842-0.6442-1.4284-1.4284-1.4284zm15.713 5.7138v19.999h-2.8569v-19.996l2.8569-0.0029zm-14.285 8.5708h2.857v11.428h-2.857v-11.428zm-11.428 5.7139h2.8569v5.7139h-2.8569v-5.7139z" clip-rule="evenodd" fill-rule="evenodd"/>
</symbol>
<symbol viewBox="0 0 36 40">
<g>
<path d="m23.576 27.306c-0.7756-0.2495-1.3874-0.9209-1.3874-1.7357 0-0.5134 0.2512-0.9878 0.6252-1.3395 1.3654-1.2838 2.2195-3.1054 2.2195-5.123 0-1.6179 0.3172-3.2454 0.1412-4.8537-0.0975-0.8903-0.3598-1.7625-0.7826-2.5738-0.8465-1.6242-2.2609-2.8622-3.983-3.4859-2.496-1.1017-5.4073-0.9194-7.5999 0.7647l-3.3376 2.5119c-1.1931 0.8436-1.071 2.8083 0.21709 3.498l1.263 0.7251c0.0084 0.0048 0.0136 0.0136 0.0136 0.0232v3.3904c0 2.0183 0.8546 3.8405 2.2208 5.1244 0.3741 0.3514 0.6253 0.8257 0.6253 1.339 0 0.8143-0.6114 1.4853-1.3866 1.7346-3.205 1.0306-5.5307 4.0404-5.5307 7.5834v3.8779c0 0.6812 0.55224 1.2335 1.2335 1.2335 0.68123 0 1.2335-0.5523 1.2335-1.2335v-3.8778c0-2.1306 1.2185-3.982 2.9952-4.894 1.1841-0.6078 2.5391 0.0152 3.4075 1.0239l0.203 0.2358c0.516 0.5994 0.7998 1.3641 0.7998 2.155v2.0693c0 0.6812 0.5523 1.2335 1.2335 1.2335s1.2334-0.5523 1.2334-1.2335v-2.0481c0-0.7986 0.2912-1.5698 0.8191-2.1691l0.2187-0.2483c0.8826-1.0021 2.2488-1.6124 3.4295-0.9888 1.7457 0.9221 2.9382 2.7566 2.9382 4.8644v3.8777c0 0.6812 0.5523 1.2335 1.2335 1.2335s1.2334-0.5523 1.2334-1.2335v-3.8778c1e-4 -3.5427-2.3252-6.5523-5.5297-7.5832zm-8.8734-12.75c-1.6955-0.3906-1.8003-2.5799-0.4101-3.6262 1.5296-1.1925 3.5595-1.2009 5.2762-0.4163 1.7102 0.6195 2.8613 2.0829 3.127 3.7645 0.0112 0.0709-0.0594 0.1268-0.127 0.1028-3.0777-0.9281-4.6746 0.9106-7.8661 0.1752zm5.019 12.901c0 0.2883-0.1051 0.5667-0.2957 0.7831l-0.1277 0.145c-0.6805 0.7727-1.887 0.7659-2.5588-0.0145l-0.1834-0.213c-0.1792-0.2082-0.2778-0.4738-0.2778-0.7485 0-0.7503 0.7144-1.3004 1.4642-1.274 0.1554 0.0055 0.3113 6e-3 0.4669 0.0015 0.7744-0.0224 1.5123 0.5457 1.5123 1.3204zm-0.7231-4.8416c0.4157 0 0.794-0.1402 1.0766-0.3695 0.0985-0.08 0.2176-0.1351 0.3446-0.1351 0.3958 0 0.5877 0.4509 0.2683 0.6847-0.7547 0.5521-1.6842 0.8786-2.6888 0.8786-2.5183 0-4.5671-2.0488-4.5671-4.5671v-1.5738c0-0.3931 0.3775-0.6764 0.7619-0.5942 0.2234 0.0479 0.448 0.0888 0.6734 0.1232 0.0011 2e-4 0.0022-7e-4 0.0022-0.0018 0-0.0012 1e-3 -0.0021 0.0022-0.0019 1.6812 0.2547 3.4166 0.1318 5.0658-0.3859 0.2744-0.086 0.5547-0.1291 0.8321-0.1316 1.2282-0.0114 1.7966 1.3378 1.7966 2.5659 0 0.744-0.6866 1.2417-1.4305 1.2417h-0.1256c-0.5038 0-0.9731-0.257-1.4513-0.4154-0.1742-0.0577-0.3631-0.0893-0.5604-0.0893-0.8746 0-1.5836 0.6205-1.5836 1.3857 0 0.7655 0.709 1.3858 1.5836 1.3858z"/>
<path d="m31.516 27.564c-0.583 0.3524-1.3413 0.1654-1.6937-0.4176l-1.394-2.3065c-0.2289-0.3788-0.2373-0.8512-0.0221-1.238 0.4468-0.8024 0.8003-1.6548 1.0507-2.5336 0.1214-0.426 0.4619-0.7543 0.892-0.8599l1.2013-0.295c0.9816-0.241 1.6717-1.1211 1.6717-2.1318s-0.6901-1.8908-1.6716-2.1319l-1.1904-0.2923c-0.4315-0.106-0.7727-0.4358-0.8931-0.8634-0.2476-0.879-0.5985-1.7325-1.0432-2.5368-0.2136-0.3862-0.2045-0.8571 0.0238-1.2348l0.6563-1.086c0.5187-0.85822 0.3862-1.9594-0.3213-2.67-0.7124-0.71567-1.8226-0.84952-2.6847-0.32368l-1.0464 0.63827c-0.3811 0.23239-0.8577 0.24077-1.2465 0.02231-0.7982-0.44846-1.6459-0.80325-2.5196-1.0544-0.4256-0.1223-0.7529-0.4635-0.8577-0.89376l-0.2991-1.2293c-0.2369-0.97341-1.1088-1.6586-2.1106-1.6586s-1.8737 0.68515-2.1106 1.6586l-0.2965 1.2184c-0.1049 0.43154-0.4339 0.77334-0.8611 0.89479-0.8741 0.24855-1.7229 0.60085-2.5228 1.047-0.3883 0.21666-0.8633 0.2076-1.2432-0.02411l-1.0558-0.644c-0.86207-0.52578-1.9722-0.39191-2.6846 0.32373-0.7074 0.71064-0.83989 1.8117-0.32126 2.6699l0.6507 1.0768c0.22898 0.3788 0.23735 0.8512 0.02214 1.238-0.44692 0.8026-0.80034 1.655-1.0508 2.5336-0.12137 0.426-0.46188 0.7542-0.89205 0.8599l-1.2012 0.295c-0.98155 0.2411-1.6717 1.1212-1.6717 2.1319s0.6901 1.8908 1.6716 2.1318l1.1904 0.2924c0.43146 0.106 0.77265 0.4358 0.89308 0.8634 0.24752 0.8789 0.59855 1.7324 1.0432 2.5369 0.2135 0.3862 0.20436 0.857-0.02393 1.2347l-1.3996 2.3158c-0.35236 0.5831-1.1106 0.7701-1.6937 0.4177-0.58301-0.3524-0.77001-1.1106-0.41767-1.6936l0.56124-0.9287c0.29934-0.4954 0.31944-1.1067 0.09907-1.6419-0.22174-0.5385-0.67002-0.959-1.2356-1.0979l-2.2159-0.5442c-0.55154-0.1354-0.93932-0.63-0.93932-1.1978v-5.3771c0-0.568 0.38778-1.0624 0.93932-1.1979l2.2322-0.5482c0.56386-0.1385 1.0113-0.5571 1.2337-1.0934 0.22235-0.5361 0.20303-1.1493-0.09713-1.6461l-1.1908-1.9706c-0.29299-0.48479-0.2182-1.1068 0.18146-1.5082l3.7849-3.8022c0.40239-0.40419 1.0294-0.47991 1.5165-0.18282l1.9696 1.2013c0.4921 0.30013 1.1015 0.32039 1.6339 0.09948 0.5313-0.22046 0.9453-0.66417 1.0813-1.223l0.5461-2.2443c0.1346-0.55282 0.6297-0.94188 1.1986-0.94188h5.3525c0.5689 0 1.0641 0.38906 1.1986 0.94188l0.5501 2.2606c0.1356 0.5572 0.5477 1.0001 1.0768 1.2212 0.5334 0.22294 1.1448 0.2034 1.6383-0.09763l1.9555-1.1927c0.4871-0.2971 1.114-0.22137 1.5165 0.18282l3.7848 3.8022c0.3997 0.40146 0.4745 1.0234 0.1815 1.5082l-1.1991 1.9842c-0.2994 0.4954-0.3195 1.1068-0.0991 1.642 0.2218 0.5385 0.67 0.9591 1.2356 1.098l2.2159 0.5441c0.5516 0.1355 0.9393 0.63 0.9393 1.1979v5.3771c0 0.568-0.3877 1.0624-0.9393 1.1979l-2.2322 0.5481c-0.5639 0.1385-1.0113 0.5571-1.2337 1.0934-0.2224 0.5361-0.203 1.1493 0.0972 1.6461l0.5528 0.9146c0.3523 0.5831 0.1654 1.3414-0.4177 1.6937z"/>
</g>
</symbol>
</svg>
