<svg width="190" height="64" viewBox="0 0 190 64" fill="none" xmlns="http://www.w3.org/2000/svg">
<path d="M27.6534 1.44531C24.8705 2.92642 23.9907 3.41518 23.9907 3.50405C23.9907 3.5633 24.0867 3.6966 24.1987 3.80027C24.2947 3.90395 24.4866 4.17055 24.6145 4.39271C24.7425 4.61488 24.9664 4.94073 25.1423 5.08884C25.3023 5.25176 25.4302 5.41468 25.4302 5.45911C25.4302 5.63684 27.6213 8.40653 27.7493 8.40653C27.8772 8.39171 31.2359 1.97851 31.1399 1.90445C30.7081 1.60823 29.1888 0.956543 28.9168 0.956543C28.7089 0.971354 28.1491 1.17871 27.6534 1.44531Z" fill="white"/>
<path d="M31.3479 3.81493C30.9641 4.55548 30.1484 6.14027 29.5565 7.31034C28.9489 8.49523 28.501 9.54682 28.5489 9.6653C28.5969 9.7838 29.0767 10.4651 29.6045 11.1612C30.1323 11.8574 32.0676 14.4641 33.9069 16.9524C35.7461 19.4258 37.3135 21.4845 37.3774 21.4993C37.4415 21.5142 38.4171 19.959 39.5527 18.0188C40.6722 16.0934 42.2715 13.3533 43.1033 11.9462C43.9349 10.5244 44.6226 9.32466 44.6226 9.28022C44.6226 9.19136 40.8002 7.08817 38.2411 5.76999C37.9213 5.60707 36.9776 5.08868 36.146 4.62954C35.3143 4.1704 34.3387 3.65201 33.9869 3.47427C33.6349 3.29654 33.0592 2.98551 32.6914 2.79297L32.0356 2.4375L31.3479 3.81493Z" fill="white"/>
<path d="M21.9114 4.5408C21.3356 4.86664 20.5199 5.32578 20.0721 5.54795C19.6403 5.77012 18.5207 6.37737 17.5931 6.88095C16.6655 7.39934 15.5938 7.97697 15.194 8.18433C14.7942 8.39168 13.1149 9.29516 11.4355 10.2134C9.77215 11.1169 6.74934 12.761 4.71813 13.8422C2.70293 14.9233 0.799685 15.9602 0.527791 16.123L0 16.4341V17.8115V19.1889L2.38306 21.8846C6.52542 26.5797 12.3631 33.1706 12.5391 33.3484C12.6351 33.4372 13.0669 33.926 13.4987 34.4148L14.2983 35.3182L14.7142 34.4592C14.9541 34.0001 16.0577 31.7784 17.1772 29.5419C18.2968 27.3054 19.3044 25.3059 19.4323 25.0986C19.6083 24.7727 23.6867 16.7451 24.9501 14.2124C25.19 13.7236 25.7978 12.5388 26.2936 11.5613C26.7895 10.5985 27.1893 9.73949 27.1893 9.68024C27.1893 9.53214 23.4468 4.4075 23.1268 4.11128C22.999 3.99279 22.695 4.09647 21.9114 4.5408Z" fill="white"/>
<path d="M43.5828 13.0572C42.5431 14.8346 41.4555 16.686 41.1676 17.1747C40.8958 17.6635 40.0801 19.0557 39.3604 20.2554C38.6567 21.47 38.0649 22.492 38.0649 22.5215C38.0649 22.6253 38.9766 23.8545 39.2324 24.0916C39.3604 24.1952 39.5524 24.4618 39.6643 24.6543C39.7762 24.8617 41.4555 27.1575 43.3908 29.7641C45.326 32.3709 47.4532 35.2294 48.1089 36.133C51.3876 40.5911 52.6671 42.2795 52.6992 42.2499C52.7151 42.2203 53.8987 40.2356 55.3221 37.8214L57.8971 33.4373V24.9358V16.4194L56.6655 15.7381C55.1462 14.9087 50.8598 12.5981 49.9642 12.1241C49.6123 11.9464 48.5248 11.354 47.5652 10.8208C46.6056 10.2876 45.7419 9.84326 45.646 9.84326C45.55 9.84326 44.6223 11.2948 43.5828 13.0572Z" fill="white"/>
<path d="M24.5504 17.2046C22.7112 20.8629 20.6799 24.8619 20.0402 26.1208C19.4005 27.3649 18.8727 28.4165 18.8727 28.4313C18.8727 28.461 18.4088 29.3644 17.8651 30.4457C15.8978 34.2817 15.0342 35.9998 15.0342 36.1035C15.0342 36.1923 17.1773 38.6362 20.6959 42.576C21.3036 43.272 22.1513 44.22 22.5672 44.6939L23.3349 45.5381L23.8786 44.6199C24.8863 42.9314 25.2701 42.2649 29.2205 35.5406C33.8107 27.7353 33.8907 27.5871 35.5381 24.8322C36.2257 23.6769 36.7856 22.655 36.7856 22.581C36.7856 22.5069 36.6896 22.3588 36.5616 22.2551C36.4497 22.1367 36.2578 21.8848 36.1298 21.6774C36.0019 21.4702 34.8983 19.9445 33.6668 18.2857C32.4352 16.6269 30.9639 14.6422 30.3881 13.8572C28.8207 11.7244 27.957 10.584 27.925 10.584C27.9091 10.584 26.3896 13.561 24.5504 17.2046Z" fill="white"/>
<path d="M0.0321415 34.2075L0.0801226 47.656L2.20728 48.8113C3.37483 49.4481 4.78227 50.1887 5.34205 50.485L6.34965 51.0033L9.32448 45.1233C10.9558 41.8945 12.6352 38.5768 13.035 37.7622C13.4989 36.8587 13.7388 36.2219 13.6428 36.1181C13.5788 36.0145 13.083 35.4516 12.5392 34.8444C12.0115 34.2519 9.56439 31.4971 7.11735 28.7274C0.559933 21.3219 0.59192 21.3515 0.272047 21.0405C0.0161478 20.7591 0.000154205 21.3515 0.0321415 34.2075Z" fill="white"/>
<path d="M36.5777 24.995C36.0818 25.8392 35.666 26.5798 35.666 26.639C35.666 26.6983 35.586 26.8168 35.506 26.9204C35.3621 27.0686 34.3545 28.7571 31.6516 33.3929C31.3316 33.9261 29.5244 37.0068 27.6211 40.2356C25.7179 43.4645 24.1345 46.1749 24.1185 46.2341C24.0865 46.3082 26.1658 48.7224 28.7088 51.6105C31.2677 54.4839 33.8746 57.4461 34.5145 58.1867C35.1542 58.9272 35.7779 59.5197 35.8739 59.49C35.9699 59.4604 36.4497 59.2234 36.9454 58.942C37.4252 58.6754 39.5205 57.5349 41.5836 56.4241C43.6468 55.3133 45.4542 54.2913 45.5981 54.158C45.742 54.0247 46.1098 53.4767 46.4297 52.9435C48.8447 48.7816 51.8836 43.657 52.0115 43.5089C52.1875 43.3015 51.7397 42.6498 46.1578 35.1702C43.167 31.1416 41.8395 29.3495 39.1046 25.6171C38.3369 24.5507 37.6492 23.6472 37.5853 23.5732C37.5373 23.5139 37.0734 24.1508 36.5777 24.995Z" fill="white"/>
<path d="M56.9375 37.051C56.4577 37.9249 55.9939 38.6951 55.9299 38.7839C55.594 39.1987 53.4189 42.9755 53.4189 43.1384C53.4189 43.3754 56.9055 48.0557 57.0974 48.0557C57.1615 48.0557 57.3693 47.9372 57.5613 47.7891C57.8971 47.5373 57.8971 47.5077 57.8651 41.4943L57.8171 35.4663L56.9375 37.051Z" fill="white"/>
<path d="M13.9945 38.0289C13.7546 38.5325 12.1232 41.7762 10.3799 45.2271C8.63661 48.6929 7.21318 51.5218 7.24516 51.5366C7.27715 51.5662 8.86052 52.4105 10.076 53.0622C10.3799 53.225 11.7234 53.936 13.0349 54.6618C14.3624 55.3727 15.7378 56.1132 16.1057 56.3058L16.7774 56.6613L17.0014 56.3206C17.1933 56.0392 19.3684 52.3364 22.2152 47.4487L22.775 46.4712L22.2313 45.8196C21.6235 45.0938 17.4171 40.3246 17.2732 40.2061C17.2252 40.1617 16.6335 39.4804 15.9458 38.6806C15.242 37.8956 14.6342 37.2143 14.5703 37.1846C14.5063 37.1402 14.2504 37.5253 13.9945 38.0289Z" fill="#FF005C"/>
<path d="M50.1083 48.604C48.6848 51.033 47.5492 53.0325 47.5812 53.0622C47.6133 53.1066 48.381 52.7363 49.2926 52.2475C53.5789 49.9519 55.754 48.7669 55.882 48.6484C55.9779 48.5595 55.4342 47.6858 54.4585 46.3528C53.5948 45.1678 52.8432 44.2051 52.7952 44.2051C52.7472 44.2051 51.5316 46.1898 50.1083 48.604Z" fill="white"/>
<path d="M23.0631 47.9375C22.6633 48.6929 21.8795 50.0259 19.8324 53.4621C17.6253 57.1796 17.6733 57.076 17.8491 57.224C17.9291 57.2981 18.6809 57.7128 19.5125 58.172C20.3441 58.6164 21.8476 59.4162 22.8391 59.9641C23.8308 60.4973 24.9503 61.1046 25.3182 61.2971C25.6861 61.4896 26.5498 61.9489 27.2374 62.3339C27.9251 62.7042 28.6769 63.0153 28.9168 63.0153C29.1567 63.0153 29.9244 62.7042 30.6282 62.3339C31.3318 61.9636 32.2275 61.4896 32.5954 61.2824C34.2107 60.4381 34.7545 60.1271 34.7705 60.0382C34.7864 59.9789 34.5306 59.6531 34.1947 59.2976C33.8748 58.9422 32.0515 56.8835 30.1483 54.721C28.2291 52.5586 25.974 50.0111 25.1263 49.0632C24.2786 48.1005 23.5589 47.3154 23.4949 47.3154C23.4469 47.3154 23.255 47.5969 23.0631 47.9375Z" fill="white"/>
<path d="M86.9302 38.84V39.4858H82.7109L81.7852 37.1609H75.5855L74.6598 39.4858H70.4405V38.84L76.2958 25.3642H81.0748L86.9302 38.84ZM80.3429 33.5875L78.6853 29.4758L77.0278 33.5875H80.3429ZM101.429 25.3642V29.239H92.6678V30.8751H100.999V34.7499H92.6678V39.4858H88.3408V25.3642H101.429ZM128.296 25.3642V29.239H119.534V30.8751H127.865V34.7499H119.534V39.4858H115.207V25.3642H128.296ZM134.692 25.3642V35.611H143.453V39.4858H130.365V25.3642H134.692ZM158.232 25.3642V29.0668H149.47V30.5952H157.801V34.2333H149.47V35.7832H158.232V39.4858H145.143V25.3642H158.232ZM176.307 26.01L171.054 32.425L176.307 38.84V39.4858H171.313L168.127 35.4818L164.962 39.4858H159.968V38.84L165.221 32.425L159.968 26.01V25.3642H164.962L168.127 29.3682L171.313 25.3642H176.307V26.01Z" fill="white"/>
<path d="M109.547 29.605C109.547 31.1836 108.815 32.1236 107.351 32.425C108.815 32.7264 109.547 33.6664 109.547 35.245V36.5797C109.547 37.0533 109.841 37.2901 110.43 37.2901H113.142V41.0143H109.655C108.837 41.0143 108.098 40.842 107.437 40.4976C106.792 40.1675 106.282 39.7083 105.909 39.1199C105.55 38.5171 105.371 37.8426 105.371 37.0963V35.0082C105.371 34.7786 105.292 34.5992 105.134 34.4701C104.976 34.3409 104.761 34.2763 104.488 34.2763H103.003V30.5737H104.488C104.761 30.5737 104.976 30.5091 105.134 30.3799C105.292 30.2508 105.371 30.0714 105.371 29.8418V27.7537C105.371 27.0074 105.55 26.3401 105.909 25.7516C106.282 25.1489 106.792 24.6825 107.437 24.3524C108.098 24.008 108.837 23.8357 109.655 23.8357H113.142V27.5384H110.43C110.143 27.5384 109.92 27.603 109.762 27.7321C109.619 27.8613 109.547 28.0407 109.547 28.2703V29.605ZM187.788 30.5737V34.2763H186.303C186.03 34.2763 185.815 34.3409 185.657 34.4701C185.499 34.5992 185.42 34.7786 185.42 35.0082V37.0963C185.42 37.8426 185.234 38.5171 184.86 39.1199C184.502 39.7083 183.992 40.1675 183.332 40.4976C182.686 40.842 181.954 41.0143 181.136 41.0143H177.649V37.3116H180.361C180.648 37.3116 180.864 37.247 181.007 37.1179C181.165 36.9887 181.244 36.8093 181.244 36.5797V35.245C181.244 33.6664 181.976 32.7264 183.44 32.425C181.976 32.1236 181.244 31.1836 181.244 29.605V28.2703C181.244 27.7967 180.95 27.5599 180.361 27.5599H177.649V23.8357H181.136C181.954 23.8357 182.686 24.008 183.332 24.3524C183.992 24.6825 184.502 25.1489 184.86 25.7516C185.234 26.3401 185.42 27.0074 185.42 27.7537V29.8418C185.42 30.0714 185.499 30.2508 185.657 30.3799C185.815 30.5091 186.03 30.5737 186.303 30.5737H187.788Z" fill="#FF005C"/>
</svg>
