<svg width="43" height="43" viewBox="0 0 43 43" fill="none" xmlns="http://www.w3.org/2000/svg">
<path fill-rule="evenodd" clip-rule="evenodd" d="M0.951172 21.7769C0.951172 33.3803 10.3576 42.7867 21.961 42.7867C33.5644 42.7867 42.9708 33.3803 42.9708 21.7769C42.9708 10.1735 33.5644 0.76709 21.961 0.76709C10.3576 0.76709 0.951172 10.1735 0.951172 21.7769ZM18.1092 31.4065L18.4667 26.051L18.4664 26.0508L28.2087 17.2591C28.6363 16.8796 28.1154 16.6945 27.5478 17.0387L15.5244 24.6241L10.3309 23.0032C9.20938 22.6598 9.20132 21.8891 10.5827 21.335L30.8204 13.5314C31.7448 13.1118 32.6369 13.7534 32.284 15.1681L28.8375 31.4093C28.5969 32.5634 27.8995 32.8394 26.9333 32.3063L21.6833 28.4275L19.1597 30.8813C19.1518 30.889 19.1438 30.8967 19.136 30.9044C18.8537 31.1792 18.6202 31.4065 18.1092 31.4065Z" fill="#FF005C"/>
</svg>
