<svg width="43" height="43" viewBox="0 0 43 43" fill="none" xmlns="http://www.w3.org/2000/svg">
<path fill-rule="evenodd" clip-rule="evenodd" d="M0 21.7769C0 33.3803 9.40642 42.7867 21.0098 42.7867C32.6132 42.7867 42.0196 33.3803 42.0196 21.7769C42.0196 10.1735 32.6132 0.76709 21.0098 0.76709C9.40642 0.76709 0 10.1735 0 21.7769ZM17.1579 31.4065L17.5153 26.051L17.515 26.0508L27.2574 17.2591C27.685 16.8796 27.164 16.6945 26.5964 17.0387L14.573 24.6241L9.37958 23.0032C8.25802 22.6598 8.24997 21.8891 9.63138 21.335L29.8691 13.5314C30.7934 13.1118 31.6855 13.7534 31.3327 15.1681L27.8862 31.4093C27.6455 32.5634 26.9482 32.8394 25.982 32.3063L20.7319 28.4275L18.2084 30.8813C18.2004 30.889 18.1925 30.8967 18.1846 30.9044C17.9024 31.1792 17.6689 31.4065 17.1579 31.4065Z" fill="white"/>
</svg>
