<svg width="32" height="33" viewBox="0 0 32 33" fill="none" xmlns="http://www.w3.org/2000/svg">
<path d="M31.5994 19.7726C31.4984 21.6473 31.0779 23.3338 30.1658 24.9723C29.2536 26.6107 28.0305 27.9048 26.4795 29.1667C24.937 30.2725 23.239 31.206 21.2384 31.6389C20.402 31.8713 19.4017 32.0877 18.4098 32.1479L18.91 32.0397C18.91 32.0397 22.6254 30.3609 23.6807 26.0665C24.219 22.1929 20.8696 20.1383 20.8696 20.1383C20.8696 20.1383 18.9487 22.1494 16.4901 21.9093C12.5563 21.5251 13.5487 15.3401 13.5487 15.3401C13.5487 15.3401 7.48801 17.7322 7.15122 23.9813C6.94073 27.8869 11.0424 31.2714 11.0424 31.2714C10.5591 31.0672 9.91186 30.8469 9.42855 30.6427C7.49533 29.8257 5.91518 28.572 4.50736 27.1782C3.09954 25.7843 2.03638 24.11 1.30945 22.3115C0.582528 20.5129 0.347327 18.7624 0.448363 16.8877C0.776729 10.7949 8.63647 5.59449 8.63647 5.59449C8.63647 5.59449 9.03951 10.3453 12.8094 10.7135C19.6936 11.3857 17.7991 0.678411 17.7991 0.678411C17.7991 0.678411 23.8424 4.72363 25.1402 14.2733C28.6075 14.1408 28.507 9.89062 28.507 9.89062C28.507 9.89062 31.8688 14.7733 31.5994 19.7726Z" fill="white"/>
</svg>
