<svg width="95" height="88" viewBox="0 0 95 88" fill="none" xmlns="http://www.w3.org/2000/svg">
<path d="M38.0021 86.5474C35.532 88.9393 31.3792 87.1383 31.4373 83.7004L32.6981 53.1167L10.6881 31.6428C8.27509 29.1723 10.065 25.0449 13.5177 25.1182L44.2362 26.5112L65.702 4.68987C68.1721 2.29802 72.325 4.09899 72.2669 7.53687L71.006 38.1205L93.016 59.5945C95.429 62.065 93.6391 66.1923 90.1864 66.119L59.4679 64.726L38.0021 86.5474Z" fill="#FF005C"/>
<path d="M29.2164 83.5474C26.7463 85.9393 22.5934 84.1383 22.6515 80.7004L23.9124 50.1168L1.90244 28.6428C-0.510614 26.1723 1.27931 22.0449 4.73197 22.1182L35.4505 23.5112L56.9163 1.68987C59.3864 -0.701982 63.5392 1.099 63.4811 4.53687L62.2202 35.1206L84.2302 56.5945C86.6433 59.065 84.8533 63.1924 81.4007 63.1191L50.6821 61.7261L29.2164 83.5474Z" fill="#00F0FF"/>
<path d="M33.6969 84.5474C31.2268 86.9392 27.074 85.1383 27.1321 81.7004L28.393 51.1167L6.38297 29.6428C3.96992 27.1723 5.75984 23.0449 9.2125 23.1182L39.9311 24.5112L61.3969 2.68987C63.867 0.298016 68.0198 2.09899 67.9617 5.53687L66.7008 36.1205L88.7108 57.5945C91.1239 60.065 89.3339 64.1923 85.8813 64.119L55.1627 62.726L33.6969 84.5474Z" fill="black"/>
</svg>
