<svg width="96" height="88" viewBox="0 0 96 88" fill="none" xmlns="http://www.w3.org/2000/svg">
<path d="M24.8364 83.4988C25.873 82.5561 26.6953 81.437 27.2563 80.2053C27.8174 78.9737 28.1062 77.6536 28.1063 76.3204C28.1064 74.9872 27.8177 73.6671 27.2568 72.4354C26.6959 71.2037 25.8738 70.0845 24.8373 69.1417C23.8008 68.199 22.5703 67.4511 21.2161 66.9409C19.8618 66.4306 18.4103 66.168 16.9444 66.1679C15.4785 66.1678 14.027 66.4303 12.6726 66.9405C11.3183 67.4506 10.0877 68.1983 9.05112 69.1409C5.94597 71.9633 4.71822 76.3402 4.33343 80.3036C4.11301 82.546 4.12739 84.8023 4.37639 87.0422C4.44261 87.6038 5.03679 87.7307 5.1388 87.747H5.16923C5.418 87.747 8.9849 87.8203 10.0838 84.6544C10.2812 84.0641 10.5711 83.5027 10.9446 82.9877C11.0995 82.7846 11.3252 82.635 11.5852 82.5631C11.8452 82.4913 12.1243 82.5014 12.3772 82.5918C12.6301 82.6822 12.8421 82.8477 12.9787 83.0613C13.1153 83.275 13.1686 83.5243 13.1299 83.7689C12.9514 84.9714 13.2258 86.1934 13.9084 87.2359C13.983 87.352 14.0942 87.4451 14.2275 87.5031C14.3609 87.5611 14.5103 87.5815 14.6565 87.5615C18.3934 87.0406 22.2198 85.8784 24.8364 83.4988Z" fill="#FF005C"/>
<path d="M95.727 12.0287C95.4567 7.78207 92.1118 4.73993 87.4424 4.49415C71.582 3.63473 53.9067 9.75157 40.1223 22.288L36.4463 25.6313C35.1207 26.8358 33.8619 28.0717 32.67 29.3391H21.0798C18.6189 29.4254 16.4426 30.7162 15.2113 32.6108L8.39785 45.0056C8.21589 45.4505 8.08864 45.9123 8.01843 46.3826C8.02915 47.1801 8.38284 47.942 9.00372 48.5051C9.62461 49.0683 10.4633 49.3879 11.3401 49.3955H19.9451C18.8283 52.8136 19.5728 56.1781 21.9621 58.3478L36.5107 71.5792C38.8982 73.7522 42.5957 74.4293 46.3541 73.4136V81.2477C46.3648 82.0437 46.7173 82.8044 47.3362 83.3673C47.9552 83.9303 48.7916 84.2508 49.6669 84.2605C50.184 84.1967 50.6918 84.0809 51.181 83.9155L64.8097 77.7189C66.8929 76.599 68.3121 74.6263 68.407 72.3817V61.8424C69.797 60.7573 71.156 59.6125 72.484 58.408L76.16 55.0647C89.9462 42.5283 96.672 26.4533 95.727 12.0287ZM76.416 37.1455C74.7753 38.6377 72.6849 39.6539 70.4092 40.0657C68.1335 40.4774 65.7746 40.2661 63.631 39.4586C61.4873 38.651 59.655 37.2835 58.3659 35.5289C57.0768 33.7743 56.3888 31.7114 56.3888 29.6012C56.3888 27.491 57.0768 25.4281 58.3659 23.6735C59.655 21.9189 61.4873 20.5514 63.631 19.7439C65.7746 18.9363 68.1335 18.725 70.4092 19.1368C72.6849 19.5485 74.7753 20.5647 76.416 22.0569C78.616 24.0578 79.8519 26.7716 79.8519 29.6012C79.8519 32.4309 78.616 35.1446 76.416 37.1455Z" fill="#FF005C"/>
<path d="M18.3415 21.0526C17.702 20.4708 17.3428 19.6819 17.3428 18.8592C17.3428 18.0366 17.702 17.2477 18.3415 16.6659L27.1755 8.63168C27.8163 8.0489 28.6854 7.7215 29.5916 7.7215C30.4978 7.7215 31.3669 8.0489 32.0077 8.63168C32.6485 9.21446 33.0085 10.0049 33.0085 10.8291C33.0085 11.6532 32.6485 12.4437 32.0077 13.0264L23.1737 21.0607C22.8562 21.3493 22.4792 21.5782 22.0642 21.734C21.6493 21.8899 21.2046 21.9697 20.7557 21.969C20.3068 21.9682 19.8624 21.8869 19.4481 21.7296C19.0339 21.5724 18.6578 21.3423 18.3415 21.0526Z" fill="#FF005C"/>
<path d="M5.53624 19.2117C4.89897 18.6302 4.54114 17.8426 4.54114 17.0216C4.54114 16.2006 4.89897 15.4131 5.53624 14.8316L10.066 10.7054C10.7097 10.1419 11.5708 9.83058 12.4642 9.83834C13.3576 9.84609 14.2119 10.1723 14.8437 10.7469C15.4754 11.3214 15.8341 12.0984 15.8427 12.911C15.8512 13.7235 15.5089 14.5066 14.8893 15.092L10.3595 19.2117C10.0435 19.5008 9.66774 19.7303 9.25386 19.8868C8.83998 20.0434 8.39614 20.124 7.94788 20.124C7.49962 20.124 7.05579 20.0434 6.6419 19.8868C6.22802 19.7303 5.85226 19.5008 5.53624 19.2117Z" fill="#FF005C"/>
<path d="M77.2322 74.6099C76.9142 74.3225 76.6619 73.9808 76.4898 73.6044C76.3176 73.228 76.229 72.8243 76.229 72.4166C76.229 72.009 76.3176 71.6053 76.4898 71.2289C76.6619 70.8525 76.9142 70.5107 77.2322 70.2233L86.0644 62.1972C86.704 61.6144 87.572 61.2866 88.4773 61.2858C89.3827 61.2851 90.2514 61.6114 90.8921 62.1931C91.5329 62.7748 91.8934 63.5642 91.8942 64.3876C91.8951 65.211 91.5362 66.001 90.8966 66.5838L82.0644 74.6181C81.7469 74.9067 81.3699 75.1355 80.9549 75.2914C80.54 75.4473 80.0953 75.5271 79.6464 75.5263C79.1975 75.5256 78.7531 75.4443 78.3388 75.287C77.9246 75.1297 77.5485 74.8997 77.2322 74.6099Z" fill="#FF005C"/>
<path d="M79.2547 86.2562C78.6152 85.6744 78.256 84.8855 78.256 84.0629C78.256 83.2403 78.6152 82.4513 79.2547 81.8695L83.7844 77.7499C84.1011 77.4613 84.4772 77.2323 84.8912 77.0759C85.3053 76.9196 85.7491 76.8389 86.1974 76.8385C86.6457 76.8381 87.0897 76.9181 87.504 77.0737C87.9183 77.2294 88.2949 77.4578 88.6122 77.7458C88.9295 78.0338 89.1813 78.3759 89.3532 78.7524C89.5252 79.1289 89.6139 79.5326 89.6143 79.9403C89.6147 80.348 89.5268 80.7518 89.3556 81.1286C89.1845 81.5055 88.9334 81.8479 88.6167 82.1365L84.0869 86.2562C83.7701 86.5455 83.3936 86.7752 82.979 86.9318C82.5643 87.0885 82.1198 87.1692 81.6708 87.1692C81.2218 87.1692 80.7772 87.0885 80.3626 86.9318C79.948 86.7752 79.5714 86.5455 79.2547 86.2562Z" fill="#FF005C"/>
<path d="M20.6582 79.1763C21.6948 78.2337 22.5171 77.1146 23.0781 75.8829C23.6392 74.6512 23.928 73.3311 23.9281 71.998C23.9281 70.6648 23.6395 69.3447 23.0786 68.1129C22.5177 66.8812 21.6956 65.762 20.6591 64.8193C19.6226 63.8766 18.3921 63.1287 17.0378 62.6184C15.6836 62.1082 14.2321 61.8455 12.7662 61.8455C11.3003 61.8454 9.84875 62.1079 8.49442 62.618C7.14009 63.1281 5.90949 63.8758 4.8729 64.8185C1.76774 67.6409 0.539999 72.0177 0.15521 75.9812C-0.0652115 78.2235 -0.0508291 80.4799 0.198164 82.7198C0.264383 83.2813 0.858568 83.4083 0.960582 83.4246H0.991007C1.23978 83.4246 4.80668 83.4978 5.90556 80.332C6.10293 79.7416 6.39286 79.1803 6.76642 78.6652C6.92127 78.4621 7.14699 78.3125 7.40701 78.2407C7.66702 78.1688 7.94609 78.1789 8.199 78.2694C8.45191 78.3598 8.66384 78.5252 8.80045 78.7389C8.93705 78.9525 8.99034 79.2019 8.95166 79.4465C8.77315 80.649 9.04756 81.871 9.73019 82.9135C9.80479 83.0295 9.91595 83.1226 10.0493 83.1806C10.1827 83.2387 10.3321 83.259 10.4783 83.239C14.2152 82.7181 18.0416 81.556 20.6582 79.1763Z" fill="#00F0FF"/>
<path d="M91.549 7.70626C91.2788 3.45962 87.9338 0.417479 83.2644 0.171699C67.404 -0.68772 49.7287 5.42913 35.9444 17.9656L32.2683 21.3088C30.9427 22.5133 29.6839 23.7493 28.492 25.0167H16.9018C14.4409 25.103 12.2646 26.3937 11.0333 28.2883L4.21987 40.6832C4.03791 41.128 3.91066 41.5899 3.84045 42.0602C3.85118 42.8576 4.20486 43.6195 4.82575 44.1827C5.44663 44.7458 6.28533 45.0654 7.16216 45.073H15.7671C14.6503 48.4912 15.3949 51.8556 17.7841 54.0253L32.3327 67.2568C34.7202 69.4297 38.4177 70.1069 42.1761 69.0912V76.9252C42.1868 77.7213 42.5393 78.482 43.1582 79.0449C43.7772 79.6078 44.6136 79.9284 45.4889 79.9381C46.0061 79.8742 46.5139 79.7585 47.003 79.593L60.6317 73.3964C62.7149 72.2766 64.1342 70.3038 64.229 68.0592V57.52C65.619 56.4348 66.978 55.29 68.306 54.0855L71.9821 50.7423C85.7682 38.2058 92.494 22.1308 91.549 7.70626ZM72.238 32.8231C70.5973 34.3153 68.507 35.3315 66.2312 35.7432C63.9555 36.1549 61.5967 35.9436 59.453 35.1361C57.3093 34.3286 55.477 32.961 54.1879 31.2064C52.8988 29.4519 52.2108 27.389 52.2108 25.2788C52.2108 23.1685 52.8988 21.1057 54.1879 19.3511C55.477 17.5965 57.3093 16.2289 59.453 15.4214C61.5967 14.6139 63.9555 14.4026 66.2312 14.8143C68.507 15.226 70.5973 16.2422 72.238 17.7344C74.438 19.7353 75.6739 22.4491 75.6739 25.2788C75.6739 28.1084 74.438 30.8222 72.238 32.8231Z" fill="#00F0FF"/>
<path d="M14.1634 16.7302C13.5239 16.1484 13.1647 15.3595 13.1647 14.5369C13.1647 13.7143 13.5239 12.9254 14.1634 12.3436L22.9974 4.30932C23.6382 3.72654 24.5073 3.39914 25.4135 3.39914C26.3197 3.39914 27.1888 3.72654 27.8296 4.30932C28.4704 4.8921 28.8304 5.68252 28.8304 6.5067C28.8304 7.33087 28.4704 8.12129 27.8296 8.70407L18.9956 16.7383C18.6781 17.027 18.3011 17.2558 17.8861 17.4117C17.4712 17.5675 17.0265 17.6474 16.5776 17.6466C16.1287 17.6459 15.6843 17.5645 15.27 17.4073C14.8558 17.25 14.4797 17.0199 14.1634 16.7302Z" fill="#00F0FF"/>
<path d="M1.35802 14.8893C0.720751 14.3078 0.362915 13.5203 0.362915 12.6993C0.362915 11.8783 0.720751 11.0907 1.35802 10.5092L5.88779 6.38303C6.53148 5.81955 7.39256 5.50823 8.28595 5.51598C9.17933 5.52373 10.0337 5.84995 10.6655 6.4245C11.2972 6.99906 11.6559 7.77609 11.6644 8.5886C11.673 9.40111 11.3306 10.1842 10.7111 10.7696L6.1813 14.8893C5.86528 15.1784 5.48952 15.4079 5.07564 15.5645C4.66176 15.721 4.21792 15.8016 3.76966 15.8016C3.3214 15.8016 2.87756 15.721 2.46368 15.5645C2.0498 15.4079 1.67404 15.1784 1.35802 14.8893Z" fill="#00F0FF"/>
<path d="M73.0538 70.2876C72.7359 70.0001 72.4836 69.6584 72.3114 69.282C72.1393 68.9056 72.0507 68.5019 72.0507 68.0942C72.0507 67.6866 72.1393 67.2829 72.3114 66.9065C72.4836 66.5301 72.7359 66.1883 73.0538 65.9009L81.886 57.8748C82.5257 57.292 83.3936 56.9642 84.299 56.9634C85.2044 56.9627 86.073 57.289 86.7138 57.8707C87.3546 58.4525 87.7151 59.2418 87.7159 60.0652C87.7167 60.8887 87.3579 61.6787 86.7183 62.2614L77.886 70.2957C77.5685 70.5843 77.1915 70.8132 76.7766 70.969C76.3617 71.1249 75.917 71.2047 75.4681 71.204C75.0191 71.2032 74.5748 71.1219 74.1605 70.9646C73.7462 70.8074 73.3701 70.5773 73.0538 70.2876Z" fill="#00F0FF"/>
<path d="M75.0763 81.9337C74.4369 81.3519 74.0776 80.563 74.0776 79.7404C74.0776 78.9178 74.4369 78.1289 75.0763 77.5471L79.6061 73.4274C79.9228 73.1389 80.2989 72.9099 80.7129 72.7535C81.1269 72.5971 81.5707 72.5164 82.019 72.5161C82.4673 72.5157 82.9113 72.5956 83.3257 72.7513C83.74 72.907 84.1165 73.1353 84.4338 73.4234C84.7511 73.7114 85.0029 74.0534 85.1749 74.43C85.3468 74.8065 85.4355 75.2101 85.4359 75.6179C85.4364 76.0256 85.3485 76.4294 85.1773 76.8062C85.0061 77.183 84.755 77.5255 84.4383 77.814L79.9085 81.9337C79.5918 82.2231 79.2152 82.4527 78.8006 82.6094C78.386 82.7661 77.9414 82.8467 77.4924 82.8467C77.0434 82.8467 76.5989 82.7661 76.1842 82.6094C75.7696 82.4527 75.3931 82.2231 75.0763 81.9337Z" fill="#00F0FF"/>
<path d="M22.7475 81.7985C23.7841 80.8559 24.6064 79.7368 25.1675 78.5051C25.7285 77.2734 26.0173 75.9533 26.0174 74.6202C26.0175 73.287 25.7289 71.9669 25.168 70.7351C24.6071 69.5034 23.7849 68.3842 22.7484 67.4415C21.712 66.4987 20.4815 65.7509 19.1272 65.2406C17.7729 64.7304 16.3214 64.4677 14.8555 64.4677C13.3896 64.4676 11.9381 64.7301 10.5838 65.2402C9.22944 65.7503 7.99885 66.498 6.96225 67.4407C3.8571 70.2631 2.62935 74.6399 2.24457 78.6033C2.02414 80.8457 2.03853 83.1021 2.28752 85.342C2.35374 85.9035 2.94792 86.0305 3.04994 86.0468H3.08036C3.32913 86.0468 6.89604 86.12 7.99492 82.9542C8.19228 82.3638 8.48222 81.8025 8.85577 81.2874C9.01063 81.0843 9.23635 80.9347 9.49636 80.8629C9.75638 80.791 10.0354 80.8011 10.2884 80.8916C10.5413 80.982 10.7532 81.1474 10.8898 81.3611C11.0264 81.5747 11.0797 81.8241 11.041 82.0687C10.8625 83.2711 11.1369 84.4931 11.8195 85.5357C11.8941 85.6517 12.0053 85.7448 12.1387 85.8028C12.272 85.8609 12.4214 85.8812 12.5676 85.8612C16.3046 85.3403 20.131 84.1782 22.7475 81.7985Z" fill="black"/>
<path d="M93.6381 10.3285C93.3679 6.08182 90.0229 3.03967 85.3535 2.79389C69.4931 1.93447 51.8179 8.05132 38.0335 20.5878L34.3574 23.931C33.0318 25.1355 31.773 26.3715 30.5811 27.6389H18.9909C16.53 27.7252 14.3538 29.0159 13.1224 30.9105L6.30898 43.3054C6.12702 43.7502 5.99978 44.2121 5.92957 44.6824C5.94029 45.4798 6.29397 46.2417 6.91486 46.8049C7.53574 47.368 8.37444 47.6876 9.25128 47.6952H17.8562C16.7394 51.1134 17.484 54.4778 19.8732 56.6475L34.4218 69.879C36.8093 72.0519 40.5069 72.729 44.2653 71.7134V79.5474C44.2759 80.3435 44.6284 81.1042 45.2474 81.6671C45.8663 82.23 46.7027 82.5506 47.578 82.5603C48.0952 82.4964 48.603 82.3807 49.0921 82.2152L62.7208 76.0186C64.804 74.8988 66.2233 72.926 66.3181 70.6814V60.1422C67.7081 59.057 69.0671 57.9122 70.3951 56.7077L74.0712 53.3645C87.8573 40.828 94.5831 24.753 93.6381 10.3285ZM74.3271 35.4453C72.6864 36.9375 70.5961 37.9537 68.3203 38.3654C66.0446 38.7771 63.6858 38.5658 61.5421 37.7583C59.3984 36.9508 57.5662 35.5832 56.277 33.8286C54.9879 32.074 54.2999 30.0112 54.2999 27.901C54.2999 25.7907 54.9879 23.7279 56.277 21.9733C57.5662 20.2187 59.3984 18.8511 61.5421 18.0436C63.6858 17.2361 66.0446 17.0248 68.3203 17.4365C70.5961 17.8482 72.6864 18.8644 74.3271 20.3566C76.5271 22.3575 77.763 25.0713 77.763 27.901C77.763 30.7306 76.5271 33.4444 74.3271 35.4453Z" fill="black"/>
<path d="M16.2527 19.3523C15.6133 18.7705 15.254 17.9816 15.254 17.159C15.254 16.3364 15.6133 15.5475 16.2527 14.9657L25.0867 6.93142C25.7275 6.34864 26.5966 6.02124 27.5029 6.02124C28.4091 6.02124 29.2782 6.34864 29.919 6.93142C30.5598 7.5142 30.9198 8.30462 30.9198 9.1288C30.9198 9.95298 30.5598 10.7434 29.919 11.3262L21.0849 19.3604C20.7674 19.6491 20.3904 19.8779 19.9755 20.0338C19.5606 20.1896 19.1159 20.2695 18.667 20.2687C18.218 20.268 17.7737 20.1866 17.3594 20.0294C16.9451 19.8721 16.569 19.642 16.2527 19.3523Z" fill="black"/>
<path d="M3.44737 17.5114C2.81011 16.9299 2.45227 16.1424 2.45227 15.3214C2.45227 14.5004 2.81011 13.7128 3.44737 13.1313L7.97714 9.00513C8.62084 8.44165 9.48191 8.13033 10.3753 8.13808C11.2687 8.14584 12.1231 8.47205 12.7548 9.0466C13.3866 9.62116 13.7453 10.3982 13.7538 11.2107C13.7623 12.0232 13.42 12.8063 12.8004 13.3917L8.27066 17.5114C7.95464 17.8005 7.57888 18.03 7.16499 18.1866C6.75111 18.3431 6.30728 18.4237 5.85902 18.4237C5.41076 18.4237 4.96692 18.3431 4.55304 18.1866C4.13916 18.03 3.7634 17.8005 3.44737 17.5114Z" fill="black"/>
<path d="M75.1432 72.9097C74.8253 72.6223 74.573 72.2806 74.4008 71.9042C74.2286 71.5278 74.14 71.1241 74.14 70.7164C74.14 70.3088 74.2286 69.9051 74.4008 69.5287C74.573 69.1523 74.8253 68.8105 75.1432 68.5231L83.9754 60.497C84.615 59.9142 85.483 59.5864 86.3884 59.5856C87.2937 59.5849 88.1624 59.9112 88.8032 60.4929C89.444 61.0746 89.8044 61.864 89.8053 62.6874C89.8061 63.5109 89.4472 64.3008 88.8076 64.8836L79.9754 72.9179C79.6579 73.2065 79.2809 73.4353 78.8659 73.5912C78.451 73.7471 78.0063 73.8269 77.5574 73.8262C77.1085 73.8254 76.6641 73.7441 76.2499 73.5868C75.8356 73.4295 75.4595 73.1995 75.1432 72.9097Z" fill="black"/>
<path d="M77.1657 84.5558C76.5262 83.974 76.167 83.1851 76.167 82.3625C76.167 81.5399 76.5262 80.7509 77.1657 80.1692L81.6954 76.0495C82.0121 75.7609 82.3882 75.5319 82.8022 75.3756C83.2163 75.2192 83.6601 75.1385 84.1084 75.1381C84.5567 75.1377 85.0007 75.2177 85.415 75.3734C85.8293 75.529 86.2059 75.7574 86.5232 76.0454C86.8405 76.3335 87.0923 76.6755 87.2642 77.052C87.4362 77.4286 87.5249 77.8322 87.5253 78.2399C87.5257 78.6476 87.4378 79.0514 87.2666 79.4283C87.0955 79.8051 86.8444 80.1475 86.5277 80.4361L81.9979 84.5558C81.6811 84.8452 81.3046 85.0748 80.89 85.2315C80.4753 85.3881 80.0308 85.4688 79.5818 85.4688C79.1328 85.4688 78.6882 85.3881 78.2736 85.2315C77.859 85.0748 77.4825 84.8452 77.1657 84.5558Z" fill="black"/>
</svg>
