<svg width="95" height="87" viewBox="0 0 95 87" fill="none" xmlns="http://www.w3.org/2000/svg">
<path d="M75.2338 0.0733643H27.9575C22.7351 0.0796199 17.7283 2.157 14.0355 5.84982C10.3427 9.54264 8.26529 14.5494 8.25903 19.7718V51.2894C8.26476 55.8287 9.83527 60.2273 12.7058 63.7437C15.5764 67.2602 19.5715 69.6795 24.0178 70.5939V82.8069C24.0177 83.5202 24.2112 84.2201 24.5777 84.8319C24.9442 85.4438 25.47 85.9447 26.0989 86.2812C26.7278 86.6177 27.4362 86.7772 28.1486 86.7425C28.861 86.7079 29.5507 86.4806 30.144 86.0847L52.7776 70.9878H75.2338C80.4562 70.9816 85.463 68.9042 89.1558 65.2114C92.8486 61.5186 94.926 56.5118 94.9323 51.2894V19.7718C94.926 14.5494 92.8486 9.54264 89.1558 5.84982C85.463 2.157 80.4562 0.0796199 75.2338 0.0733643ZM51.5956 59.1688C50.8165 59.1688 50.0548 58.9377 49.4069 58.5048C48.759 58.0719 48.254 57.4566 47.9558 56.7367C47.6577 56.0168 47.5796 55.2247 47.7317 54.4605C47.8837 53.6962 48.2589 52.9943 48.8099 52.4433C49.3608 51.8923 50.0628 51.5171 50.8271 51.3651C51.5913 51.2131 52.3834 51.2911 53.1033 51.5893C53.8232 51.8874 54.4385 52.3924 54.8714 53.0403C55.3043 53.6882 55.5353 54.4499 55.5353 55.2291C55.5353 56.2739 55.1203 57.276 54.3814 58.0148C53.6426 58.7537 52.6405 59.1688 51.5956 59.1688ZM58.5807 33.2456C57.7066 33.8162 56.9767 34.5817 56.4483 35.482C55.9199 36.3822 55.6074 37.3928 55.5353 38.4342V43.41C55.5353 44.4549 55.1203 45.4569 54.3814 46.1958C53.6426 46.9346 52.6405 47.3497 51.5956 47.3497C50.5508 47.3497 49.5487 46.9346 48.8099 46.1958C48.071 45.4569 47.656 44.4549 47.656 43.41V38.4342C47.712 36.1517 48.3095 33.9153 49.3993 31.9091C50.489 29.9028 52.0399 28.1842 53.924 26.8948C54.4671 26.4969 54.8991 25.9666 55.1789 25.3543C55.4587 24.742 55.577 24.0682 55.5224 23.3972C55.4678 22.7263 55.2421 22.0805 54.867 21.5215C54.4919 20.9625 53.9798 20.5089 53.3796 20.2041C52.7794 19.8993 52.111 19.7533 51.4384 19.7802C50.7657 19.8071 50.1112 20.0059 49.5372 20.3576C48.9632 20.7094 48.4889 21.2023 48.1596 21.7895C47.8302 22.3766 47.6569 23.0383 47.656 23.7115C47.656 24.7564 47.2409 25.7585 46.502 26.4973C45.7632 27.2361 44.7611 27.6512 43.7163 27.6512C42.6714 27.6512 41.6693 27.2361 40.9305 26.4973C40.1916 25.7585 39.7766 24.7564 39.7766 23.7115C39.7766 21.6913 40.2944 19.7047 41.2807 17.9416C42.2669 16.1784 43.6886 14.6975 45.4101 13.6402C47.1316 12.5829 49.0954 11.9845 51.114 11.9022C53.1325 11.8199 55.1385 12.2563 56.9404 13.1699C58.7423 14.0835 60.2799 15.4437 61.4065 17.1207C62.533 18.7977 63.211 20.7354 63.3755 22.749C63.54 24.7625 63.1856 26.7846 62.3462 28.6222C61.5068 30.4598 60.2104 32.0516 58.5807 33.2456Z" fill="#FF005C"/>
<path d="M67.3896 0.0733643H20.1133C14.8908 0.0796199 9.88407 2.157 6.19125 5.84982C2.49843 9.54264 0.421051 14.5494 0.414795 19.7718V51.2894C0.420525 55.8287 1.99103 60.2273 4.8616 63.7437C7.73217 67.2602 11.7273 69.6795 16.1736 70.5939V82.8069C16.1735 83.5202 16.367 84.2201 16.7335 84.8319C17.1 85.4438 17.6258 85.9447 18.2546 86.2812C18.8835 86.6177 19.592 86.7772 20.3044 86.7425C21.0168 86.7079 21.7065 86.4806 22.2998 86.0847L44.9333 70.9878H67.3896C72.612 70.9816 77.6188 68.9042 81.3116 65.2114C85.0044 61.5186 87.0818 56.5118 87.088 51.2894V19.7718C87.0818 14.5494 85.0044 9.54264 81.3116 5.84982C77.6188 2.157 72.612 0.0796199 67.3896 0.0733643ZM43.7514 59.1688C42.9722 59.1688 42.2105 58.9377 41.5626 58.5048C40.9148 58.0719 40.4098 57.4566 40.1116 56.7367C39.8134 56.0168 39.7354 55.2247 39.8874 54.4605C40.0394 53.6962 40.4147 52.9943 40.9656 52.4433C41.5166 51.8923 42.2186 51.5171 42.9828 51.3651C43.747 51.2131 44.5392 51.2911 45.2591 51.5893C45.979 51.8874 46.5942 52.3924 47.0271 53.0403C47.46 53.6882 47.6911 54.4499 47.6911 55.2291C47.6911 56.2739 47.276 57.276 46.5372 58.0148C45.7984 58.7537 44.7963 59.1688 43.7514 59.1688ZM50.7365 33.2456C49.8624 33.8162 49.1324 34.5817 48.604 35.482C48.0756 36.3822 47.7631 37.3928 47.6911 38.4342V43.41C47.6911 44.4549 47.276 45.4569 46.5372 46.1958C45.7984 46.9346 44.7963 47.3497 43.7514 47.3497C42.7065 47.3497 41.7045 46.9346 40.9656 46.1958C40.2268 45.4569 39.8117 44.4549 39.8117 43.41V38.4342C39.8678 36.1517 40.4653 33.9153 41.555 31.9091C42.6448 29.9028 44.1956 28.1842 46.0798 26.8948C46.6228 26.4969 47.0549 25.9666 47.3347 25.3543C47.6145 24.742 47.7327 24.0682 47.6781 23.3972C47.6235 22.7263 47.3979 22.0805 47.0228 21.5215C46.6477 20.9625 46.1356 20.5089 45.5353 20.2041C44.9351 19.8993 44.2668 19.7533 43.5941 19.7802C42.9215 19.8071 42.2669 20.0059 41.6929 20.3576C41.1189 20.7094 40.6447 21.2023 40.3153 21.7895C39.986 22.3766 39.8126 23.0383 39.8117 23.7115C39.8117 24.7564 39.3966 25.7585 38.6578 26.4973C37.919 27.2361 36.9169 27.6512 35.872 27.6512C34.8272 27.6512 33.8251 27.2361 33.0862 26.4973C32.3474 25.7585 31.9323 24.7564 31.9323 23.7115C31.9323 21.6913 32.4502 19.7047 33.4364 17.9416C34.4227 16.1784 35.8444 14.6975 37.5659 13.6402C39.2874 12.5829 41.2512 11.9845 43.2697 11.9022C45.2883 11.8199 47.2943 12.2563 49.0962 13.1699C50.8981 14.0835 52.4357 15.4437 53.5622 17.1207C54.6888 18.7977 55.3667 20.7354 55.5312 22.749C55.6958 24.7625 55.3414 26.7846 54.502 28.6222C53.6626 30.4598 52.3662 32.0516 50.7365 33.2456Z" fill="#00F0FF"/>
<path d="M70.5273 0.0733643H23.251C18.0285 0.0796199 13.0218 2.157 9.32895 5.84982C5.63612 9.54264 3.55875 14.5494 3.55249 19.7718V51.2894C3.55822 55.8287 5.12872 60.2273 7.99929 63.7437C10.8699 67.2602 14.865 69.6795 19.3113 70.5939V82.8069C19.3112 83.5202 19.5047 84.2201 19.8712 84.8319C20.2377 85.4438 20.7635 85.9447 21.3923 86.2812C22.0212 86.6177 22.7297 86.7772 23.4421 86.7425C24.1545 86.7079 24.8442 86.4806 25.4375 86.0847L48.071 70.9878H70.5273C75.7497 70.9816 80.7564 68.9042 84.4493 65.2114C88.1421 61.5186 90.2195 56.5118 90.2257 51.2894V19.7718C90.2195 14.5494 88.1421 9.54264 84.4493 5.84982C80.7564 2.157 75.7497 0.0796199 70.5273 0.0733643ZM46.8891 59.1688C46.1099 59.1688 45.3482 58.9377 44.7003 58.5048C44.0525 58.0719 43.5475 57.4566 43.2493 56.7367C42.9511 56.0168 42.8731 55.2247 43.0251 54.4605C43.1771 53.6962 43.5523 52.9943 44.1033 52.4433C44.6543 51.8923 45.3563 51.5171 46.1205 51.3651C46.8847 51.2131 47.6769 51.2911 48.3968 51.5893C49.1166 51.8874 49.7319 52.3924 50.1648 53.0403C50.5977 53.6882 50.8288 54.4499 50.8288 55.2291C50.8288 56.2739 50.4137 57.276 49.6749 58.0148C48.9361 58.7537 47.934 59.1688 46.8891 59.1688ZM53.8742 33.2456C53.0001 33.8162 52.2701 34.5817 51.7417 35.482C51.2133 36.3822 50.9008 37.3928 50.8288 38.4342V43.41C50.8288 44.4549 50.4137 45.4569 49.6749 46.1958C48.9361 46.9346 47.934 47.3497 46.8891 47.3497C45.8442 47.3497 44.8422 46.9346 44.1033 46.1958C43.3645 45.4569 42.9494 44.4549 42.9494 43.41V38.4342C43.0055 36.1517 43.603 33.9153 44.6927 31.9091C45.7825 29.9028 47.3333 28.1842 49.2175 26.8948C49.7605 26.4969 50.1926 25.9666 50.4724 25.3543C50.7522 24.742 50.8704 24.0682 50.8158 23.3972C50.7612 22.7263 50.5356 22.0805 50.1605 21.5215C49.7854 20.9625 49.2733 20.5089 48.673 20.2041C48.0728 19.8993 47.4045 19.7533 46.7318 19.7802C46.0592 19.8071 45.4046 20.0059 44.8306 20.3576C44.2566 20.7094 43.7823 21.2023 43.453 21.7895C43.1237 22.3766 42.9503 23.0383 42.9494 23.7115C42.9494 24.7564 42.5343 25.7585 41.7955 26.4973C41.0567 27.2361 40.0546 27.6512 39.0097 27.6512C37.9649 27.6512 36.9628 27.2361 36.2239 26.4973C35.4851 25.7585 35.07 24.7564 35.07 23.7115C35.07 21.6913 35.5879 19.7047 36.5741 17.9416C37.5604 16.1784 38.9821 14.6975 40.7036 13.6402C42.4251 12.5829 44.3889 11.9845 46.4074 11.9022C48.426 11.8199 50.432 12.2563 52.2339 13.1699C54.0357 14.0835 55.5734 15.4437 56.6999 17.1207C57.8265 18.7977 58.5044 20.7354 58.6689 22.749C58.8335 24.7625 58.4791 26.7846 57.6397 28.6222C56.8003 30.4598 55.5039 32.0516 53.8742 33.2456Z" fill="black"/>
</svg>
