<svg width="88" height="88" viewBox="0 0 88 88" fill="none" xmlns="http://www.w3.org/2000/svg">
<path d="M85.4012 60.5512L61.3975 36.5459L77.6568 28.691C82.7713 26.2205 82.364 18.6718 76.9511 16.9559C76.8533 16.9244 76.7538 16.8959 76.6528 16.8691L14.904 0.320998C10.0578 -0.976583 5.62681 3.45445 6.92439 8.30065L16.5218 43.9462C16.5486 44.0473 16.577 44.1467 16.6086 44.2446C18.3245 49.6575 25.8732 50.0648 28.3436 44.9502L36.1986 28.691L67.1546 78.7978C67.8254 79.4689 68.6218 80.0013 69.4985 80.3646C70.3751 80.7278 71.3147 80.9148 72.2636 80.9148C73.2125 80.9148 74.1521 80.7278 75.0287 80.3646C75.9053 80.0013 76.7018 79.4689 77.3726 78.7978L85.4028 70.7676C86.0736 70.0968 86.6056 69.3003 86.9686 68.4238C87.3316 67.5472 87.5183 66.6078 87.5182 65.6591C87.518 64.7104 87.331 63.771 86.9678 62.8946C86.6045 62.0181 86.0722 61.2218 85.4012 60.5512Z" fill="#FF005C"/>
<path d="M78.7591 67.3836L28.6523 38.2312L44.9115 30.3762C50.0261 27.9058 75.722 25.5043 70.3091 23.7884C70.2112 23.7568 70.1117 23.7284 70.0107 23.7015L8.26195 7.15343C3.41576 5.85584 -1.01528 10.2869 0.282302 15.1331L16.8304 76.8881C16.8572 76.9892 16.8857 77.0886 16.9172 77.1865C18.6331 82.5994 26.1818 83.0067 28.6523 77.8921L36.5072 61.6329L60.5125 85.6302C61.1833 86.3014 61.9798 86.8338 62.8564 87.197C63.733 87.5602 64.6726 87.7472 65.6215 87.7472C66.5704 87.7472 67.51 87.5602 68.3866 87.197C69.2633 86.8338 70.0597 86.3014 70.7305 85.6302L78.7607 77.6001C79.4315 76.9292 79.9636 76.1327 80.3265 75.2562C80.6895 74.3797 80.8762 73.4402 80.8761 72.4915C80.8759 71.5428 80.6889 70.6034 80.3257 69.727C79.9624 68.8506 79.4301 68.0543 78.7591 67.3836Z" fill="#00F0FF"/>
<path d="M82.096 64.6825L58.0924 40.6772L74.3516 32.8223C79.4661 30.3518 79.0589 22.8031 73.646 21.0872C73.5481 21.0557 73.4486 21.0273 73.3476 21.0004L11.5989 4.45231C6.75267 3.15473 2.32163 7.58577 3.61922 12.432L20.1673 74.187C20.1942 74.2881 20.2226 74.3875 20.2541 74.4854C21.97 79.8983 29.5187 80.3056 31.9892 75.191L39.8441 58.9318L63.8494 82.9291C64.5202 83.6003 65.3167 84.1327 66.1933 84.4959C67.0699 84.8591 68.0095 85.0461 68.9584 85.0461C69.9073 85.0461 70.8469 84.8591 71.7235 84.4959C72.6002 84.1327 73.3966 83.6003 74.0674 82.9291L82.0976 74.899C82.7684 74.2281 83.3005 73.4316 83.6634 72.5551C84.0264 71.6786 84.2131 70.7391 84.213 69.7904C84.2128 68.8417 84.0258 67.9023 83.6626 67.0259C83.2993 66.1495 82.767 65.3532 82.096 64.6825Z" fill="black"/>
</svg>
