<svg xmlns="http://www.w3.org/2000/svg" width="70" height="62" viewBox="0 0 70 62">
  <g fill="none" fill-rule="evenodd">
    <path fill="#BA2921" d="M69.3156634,44.7388556 L56.872297,44.7388556 C64.1107129,39.9710556 68.251802,33.1434778 69.3156634,26.0210556 L69.3156634,44.7388556 Z M57.1802277,0.147491111 L69.3158713,0.0234911111 L69.3158713,18.5862911 C68.263099,11.5637578 64.212802,4.85122444 57.1802277,0.147491111 Z M3.78142613e-16,44.7139867 L3.78142613e-16,25.9975644 C1.06455446,33.1192978 5.2049505,39.9475644 12.4440594,44.7139867 L3.78142613e-16,44.7139867 Z M12.1354356,0.123242222 C5.10355446,4.82697556 1.05325743,11.53882 -0.000207920792,18.5620422 L-0.000207920792,-6.88888889e-05 L12.1354356,0.123242222 Z"/>
    <path fill="#7B7A7B" d="M45.8569307,1.42834222 L45.7488119,5.15867556 C66.7384158,9.92647556 64.7465347,39.74572 40.6443564,40.1528533 L40.6831683,37.7892756 C59.7321782,31.1690533 55.8364356,6.51647556 37.6412871,3.34758667 L37.7715842,6.50476444 C44.5248515,7.46232 49.2973267,13.0946756 50.1234653,19.3256756 C50.829703,24.65492 47.9472277,30.6730533 42.8767327,33.66972 C44.1055446,30.2617867 44.5213861,26.4384533 43.9253465,23.6332978 C43.0437624,19.4910089 41.0317822,17.0936756 37.7071287,15.1647867 L37.9871287,17.7963422 C43.4887129,22.3884756 43.8116832,31.7732089 37.7715842,35.8218089 L37.7244554,43.1777644 C68.9645545,45.8265422 71.5808911,7.97829778 45.8569307,1.42834222 Z M23.2232277,1.42834222 C-2.5000396,7.97829778 0.11560396,45.8265422 31.355703,43.1777644 L31.3085743,35.8218089 C25.2677822,31.7732089 25.5914455,22.3884756 31.0923366,17.7963422 L31.3730297,15.1647867 C28.0469901,17.0936756 26.036396,19.4910089 25.155505,23.6332978 C24.5587723,26.4384533 24.9746139,30.2617867 26.2034257,33.66972 C21.1322376,30.6730533 18.2504554,24.65492 18.9566931,19.3256756 C19.7828317,13.0946756 24.556,7.46232 31.3085743,6.50476444 L31.4388713,3.34758667 C13.2430297,6.51647556 9.3479802,31.1690533 28.3976832,37.7892756 L28.436495,40.1528533 C4.33362376,39.74572 2.34174257,9.92647556 23.3306535,5.15867556 L23.2232277,1.42834222 Z"/>
    <path fill="#BA2921" d="M3.05040594,57.0070022 L3.05040594,61.52818 L0.000207920792,61.52818 L0.000207920792,49.5518467 L3.05040594,49.5518467 L3.05040594,53.9538467 L12.470604,53.9538467 L12.470604,49.5518467 L15.520802,49.5518467 L15.520802,61.52818 L12.470604,61.52818 L12.470604,57.0070022 L3.05040594,57.0070022 Z M21.2899109,61.4644578 L21.2462475,61.4644578 L21.2462475,61.4617022 C21.2351584,61.4617022 21.2247624,61.4582578 21.2136733,61.4575689 C21.0223861,61.4465467 20.8317921,61.4334578 20.6495149,61.3969467 C18.9438713,61.0993467 17.6436733,59.6313244 17.6436733,57.8512356 L17.6436733,57.6721244 L17.6436733,55.5903022 L17.6436733,55.3209467 L17.6436733,53.1853911 L17.6471386,53.1853911 C17.6658515,51.2055244 19.2834752,49.6045467 21.2795149,49.6045467 L22.1118911,49.6045467 L23.8251584,49.6045467 L30.3718911,49.6045467 C30.4280297,49.6045467 30.4800099,49.6197022 30.5354554,49.6224578 L30.5617921,49.6224578 L30.5617921,49.6252133 C30.7475347,49.6348578 30.9339703,49.64588 31.1141683,49.6858356 C32.841297,49.9655244 34.1643663,51.4397467 34.1643663,53.2363689 L34.1643663,53.4168578 L34.1643663,55.7659689 L34.1643663,57.8443467 C34.1643663,57.9607689 34.1248614,58.0675467 34.1123861,58.1812133 C34.0957525,58.3713467 34.0721881,58.5594133 34.0264455,58.7405911 C34.020901,58.7605689 34.0229802,58.7833022 34.0174356,58.8025911 C34.0091188,58.82808 33.9924851,58.8487467 33.9834752,58.8742356 C33.5440693,60.3773911 32.1648614,61.4830578 30.510505,61.4830578 L30.3240693,61.4830578 L27.9655545,61.4830578 L21.4839703,61.4830578 C21.4174356,61.4830578 21.3557525,61.4679022 21.2899109,61.4644578 Z M20.7680297,57.99728 C20.7680297,58.2618133 20.9835743,58.4760578 21.2497129,58.4760578 L30.5125842,58.4760578 C30.7787228,58.4760578 30.9942673,58.2618133 30.9942673,57.99728 L30.9942673,53.1833244 C30.9942673,52.9187911 30.7787228,52.7045467 30.5125842,52.7045467 L21.2497129,52.7045467 C20.9835743,52.7045467 20.7680297,52.9187911 20.7680297,53.1833244 L20.7680297,57.99728 Z M68.2561683,55.6376289 L68.2561683,58.3504733 L69.3158713,58.3504733 L69.3158713,61.5283178 L52.1520099,61.5283178 L52.1520099,58.3504733 L53.2692376,58.3504733 L53.2692376,55.6376289 L53.2588416,55.6376289 L53.2588416,53.2327178 L53.2623069,53.2327178 C53.2810198,51.2521622 54.8986436,49.6525622 56.8953762,49.6525622 L57.1899307,49.6525622 L59.4403267,49.6525622 L62.0753762,49.6525622 L64.2342871,49.6525622 L64.6210198,49.6525622 C66.2719109,49.6525622 67.6483465,50.7534067 68.0912178,52.2510511 C68.1882475,52.5610511 68.2561683,52.8827622 68.2561683,53.2285844 L68.2561683,53.2327178 L68.2568614,53.2327178 L68.2568614,55.6376289 L68.2561683,55.6376289 Z M65.2655743,58.3504733 L65.2655743,53.28094 C65.2655743,52.9688733 65.0119109,52.71674 64.6986436,52.71674 L56.6798317,52.71674 C56.3755743,52.71674 56.1357723,52.95854 56.1219109,53.2575178 L56.1219109,56.7942733 C56.1184455,56.7928956 56.1122079,56.79014 56.1122079,56.79014 L56.1122079,58.3504733 L65.2655743,58.3504733 Z M51.3777822,53.2161844 L51.3777822,53.2354733 L51.366,53.2354733 C51.3666931,53.2712956 51.3777822,53.3029844 51.3777822,53.3388067 C51.3777822,53.3656733 51.3736238,53.3904733 51.3694653,53.4152733 L51.3777822,53.4152733 L51.3777822,54.7654956 L51.3777822,54.7847844 C51.3777822,56.7687844 49.7670891,58.37734 47.7752079,58.3952511 L47.7752079,58.3986956 L47.4584752,58.3986956 C47.4529307,58.3986956 47.4432277,58.4000733 47.4432277,58.4000733 L39.426495,58.4000733 L39.426495,61.5786067 L36.1891683,61.5786067 L36.1891683,49.6022733 L45.355703,49.6022733 L47.0821386,49.6022733 L47.7752079,49.6022733 L47.7752079,49.6057178 C49.7670891,49.6236289 51.3777822,51.2314956 51.3777822,53.2161844 Z M48.1730297,53.4152733 L48.1730297,53.2354733 C48.1730297,52.9144511 47.9110495,52.65474 47.5880792,52.65474 L39.426495,52.65474 L39.426495,53.4152733 L39.426495,54.1764956 L39.426495,55.42614 L47.5880792,55.42614 C47.9110495,55.42614 48.1730297,55.1664289 48.1730297,54.8447178 L48.1730297,54.7654956 L48.1730297,54.6649178 L48.1730297,53.4152733 Z"/>
  </g>
</svg>
