<svg width="17" height="17" viewBox="0 0 17 17" fill="none" xmlns="http://www.w3.org/2000/svg">
<path d="M16.3037 15.3336L12.3356 11.3655C13.3192 10.1663 13.9121 8.63021 13.9121 6.95604C13.9121 3.1159 10.7962 0 6.95604 0C3.11253 0 0 3.1159 0 6.95604C0 10.7962 3.11253 13.9121 6.95604 13.9121C8.63021 13.9121 10.1629 13.3226 11.3621 12.339L15.3302 16.3037C15.5997 16.5732 16.0343 16.5732 16.3037 16.3037C16.5732 16.0376 16.5732 15.5997 16.3037 15.3336ZM6.95604 12.5276C3.88056 12.5276 1.3811 10.0282 1.3811 6.95604C1.3811 3.88393 3.88056 1.3811 6.95604 1.3811C10.0282 1.3811 12.531 3.88393 12.531 6.95604C12.531 10.0282 10.0282 12.5276 6.95604 12.5276Z" fill="#654D6F"/>
</svg>
