<svg width="18" height="19" viewBox="0 0 18 19" fill="none" xmlns="http://www.w3.org/2000/svg">
<path d="M11.6867 7.67244C15.2905 8.07109 17.0924 9.3627 17.0924 11.5473V11.7865C17.0924 13.0621 16.5901 14.1146 15.5855 14.9438C14.5809 15.7729 13.1538 16.3231 11.304 16.5942V18.6033H6.08974V16.5942C2.31056 16.0839 0.420977 14.3617 0.420977 11.4277V11.2603H5.08515V11.4277C5.08515 12.0496 5.38812 12.512 5.99406 12.815C6.61595 13.102 7.58068 13.2455 8.88824 13.2455C10.0363 13.2455 10.8735 13.1658 11.3997 13.0063C11.9419 12.8309 12.213 12.5678 12.213 12.217V12.0735C12.213 11.8184 12.0934 11.627 11.8542 11.4995C11.615 11.3559 11.2163 11.2523 10.6582 11.1885L5.94623 10.6862C2.42219 10.3035 0.660165 8.96405 0.660165 6.66785V6.42866C0.660165 5.24866 1.13057 4.28394 2.07138 3.53448C3.01218 2.78502 4.35164 2.2907 6.08974 2.05151V0.0184137H11.304V2.07543C13.074 2.34651 14.4135 2.88867 15.3224 3.70191C16.2473 4.49921 16.7097 5.55961 16.7097 6.88312V7.05055H12.0934V6.88312C12.0934 6.3569 11.8143 5.98217 11.2562 5.75893C10.6981 5.51974 9.78121 5.40015 8.50554 5.40015C7.43717 5.40015 6.65582 5.47191 6.1615 5.61542C5.68312 5.74299 5.44393 5.95826 5.44393 6.26123V6.40474C5.44393 6.61204 5.56352 6.7715 5.80271 6.88312C6.0419 6.99474 6.48041 7.08244 7.11825 7.14622L11.6867 7.67244Z" fill="black"/>
</svg>
