<svg width="19" height="20" viewBox="0 0 19 20" fill="none" xmlns="http://www.w3.org/2000/svg">
<path d="M0.884766 0.932129H9.87585C10.0538 0.932224 10.2282 0.98185 10.3795 1.07545C10.5308 1.16905 10.6531 1.30293 10.7326 1.46209L11.4264 2.8488H17.1764C17.4306 2.8488 17.6744 2.94976 17.8541 3.12949C18.0338 3.30921 18.1348 3.55296 18.1348 3.80713V14.3488C18.1348 14.603 18.0338 14.8467 17.8541 15.0264C17.6744 15.2062 17.4306 15.3071 17.1764 15.3071H11.0603C10.8824 15.307 10.708 15.2574 10.5567 15.1638C10.4054 15.0702 10.2831 14.9363 10.2036 14.7772L9.50977 13.3905H2.80143V19.1405H0.884766V0.932129Z" fill="black"/>
</svg>
