<svg width="20" height="20" viewBox="0 0 20 20" fill="none" xmlns="http://www.w3.org/2000/svg">
<path d="M0.87245 12.3847C0.808762 12.6167 0.842054 12.864 0.965089 13.0721L2.81785 16.211C2.94064 16.4191 3.14305 16.5708 3.38019 16.6331C3.61758 16.6952 3.8704 16.6629 4.08318 16.5425L5.44549 15.7733C5.9895 16.1891 6.59237 16.5303 7.2307 16.7837V18.32C7.2307 18.8202 7.6454 19.2261 8.15708 19.2261H11.8626C12.374 19.2261 12.789 18.8202 12.789 18.32V16.7837C13.4273 16.5303 14.0302 16.1891 14.5742 15.7733L15.9365 16.5425C16.149 16.6626 16.4021 16.6952 16.6393 16.6331C16.8766 16.5708 17.079 16.4191 17.2018 16.211L19.0546 13.0721C19.1774 12.864 19.2107 12.6167 19.1472 12.3847C19.0836 12.1525 18.9282 11.9546 18.7157 11.8345L17.3504 11.0636C17.3973 10.7328 17.4209 10.398 17.4209 10.0631C17.4209 9.72431 17.3968 9.38618 17.3488 9.0516L18.7157 8.27978C18.9284 8.15968 19.0836 7.96171 19.1472 7.72953C19.2107 7.49735 19.1774 7.25006 19.0546 7.04195L17.2018 3.90325C16.9461 3.47003 16.3794 3.32161 15.9365 3.57173L14.5653 4.34614C14.0234 3.93345 13.4237 3.59461 12.789 3.34261V1.79426C12.789 1.29403 12.3743 0.888184 11.8626 0.888184H8.15708C7.6454 0.888184 7.2307 1.29403 7.2307 1.79426V3.34261C6.59623 3.59461 5.99625 3.93345 5.45466 4.34614L4.08318 3.57173C3.64025 3.32137 3.07357 3.47003 2.81785 3.90325L0.965089 7.04195C0.842295 7.25006 0.809003 7.49758 0.87245 7.72953C0.936139 7.96171 1.09126 8.15968 1.30404 8.27978L2.67093 9.0516C2.62292 9.38618 2.5988 9.72431 2.5988 10.0631C2.5988 10.398 2.62244 10.7326 2.66924 11.0636L1.30428 11.8345C1.09126 11.9546 0.936139 12.1525 0.87245 12.3847ZM10.0098 7.34492C11.5446 7.34492 12.789 8.56199 12.789 10.0631C12.789 11.5643 11.5446 12.7814 10.0098 12.7814C8.4748 12.7814 7.2307 11.5643 7.2307 10.0631C7.2307 8.56199 8.47505 7.34492 10.0098 7.34492Z" fill="black"/>
</svg>
