<svg width="20" height="16" viewBox="0 0 20 16" fill="none" xmlns="http://www.w3.org/2000/svg">
<path d="M17.5503 8.56396H2.46983C1.96409 8.56396 1.55029 8.97776 1.55029 9.48351V11.1847C1.55029 12.7709 2.44684 14.2421 3.84914 14.9778C5.09052 15.6214 6.56179 15.6214 7.80317 14.9548L8.01006 14.8398C9.25144 14.1732 10.7687 14.1732 12.0101 14.8398L12.217 14.9548C13.4583 15.6214 14.9296 15.6214 16.171 14.9778C17.5733 14.2421 18.4698 12.7709 18.4698 11.1847V9.48351C18.4698 8.97776 18.056 8.56396 17.5503 8.56396ZM8.12501 12.1502C7.68822 12.495 6.99857 12.9088 6.23995 12.9088C5.48133 12.9088 4.81466 12.495 4.35489 12.1502C4.01006 11.8743 4.01006 11.4145 4.35489 11.1617C4.79167 10.8168 5.48133 10.403 6.23995 10.403C6.99857 10.403 7.66524 10.8168 8.12501 11.1617C8.46983 11.4145 8.46983 11.8743 8.12501 12.1502ZM15.6422 12.1502C15.2055 12.495 14.5158 12.9088 13.7572 12.9088C12.9986 12.9088 12.3319 12.495 11.8721 12.1502C11.5273 11.8743 11.5273 11.4145 11.8721 11.1617C12.3089 10.8168 12.9986 10.403 13.7572 10.403C14.5158 10.403 15.1825 10.8168 15.6422 11.1617C15.9641 11.4145 15.9641 11.8743 15.6422 12.1502Z" fill="black"/>
<path d="M19.9986 6.25667C19.9129 6.92898 19.3085 7.41537 18.6308 7.41537H1.38875C0.711008 7.41537 0.106611 6.92898 0.020919 6.25667C-0.0827416 5.44339 0.550013 4.7487 1.34311 4.7487H2.19367C3.44758 2.24088 6.01077 0.656738 8.81461 0.656738H11.2048C13.9967 0.656738 16.5511 2.22754 17.8109 4.71905L17.8259 4.7487H18.6764C19.4695 4.7487 20.1023 5.44339 19.9986 6.25667Z" fill="black"/>
</svg>
