<svg width="41" height="41" viewBox="0 0 41 41" fill="none" xmlns="http://www.w3.org/2000/svg">
<path d="M32.3143 29.9561C36.0437 31.1231 38.771 34.6131 38.771 38.7533H20.3335C20.3335 34.6134 23.0605 31.1231 26.7903 29.9561" stroke="black" stroke-width="3.125" stroke-miterlimit="10" stroke-linecap="round" stroke-linejoin="round"/>
<path d="M34.4497 25.9111C34.4497 28.5982 32.2741 30.8086 29.5522 30.8086C26.8438 30.8086 24.6548 28.6123 24.6548 25.9111C24.6548 23.2066 26.8477 21.0136 29.5522 21.0136C32.2568 21.0136 34.4497 23.2066 34.4497 25.9111Z" stroke="black" stroke-width="3.125" stroke-miterlimit="10" stroke-linecap="round" stroke-linejoin="round"/>
<path d="M13.876 10.8206C17.6061 11.9873 20.3335 15.4778 20.3335 19.618H1.896C1.896 15.4781 4.62303 11.9879 8.35279 10.8209" stroke="black" stroke-width="3.125" stroke-miterlimit="10" stroke-linecap="round" stroke-linejoin="round"/>
<path d="M16.0122 6.77584C16.0122 9.46295 13.8366 11.6733 11.1147 11.6733C8.40994 11.6733 6.21729 9.48092 6.21729 6.77584C6.21729 4.07131 8.41018 1.87834 11.1147 1.87834C13.8193 1.87834 16.0122 4.07131 16.0122 6.77584Z" stroke="black" stroke-width="3.125" stroke-miterlimit="10" stroke-linecap="round" stroke-linejoin="round"/>
<path d="M15.646 32.8158H1.896V25.0033" stroke="black" stroke-width="3.125" stroke-miterlimit="10" stroke-linecap="round" stroke-linejoin="round"/>
<path d="M11.4478 37.0143L15.6462 32.8158L11.4478 28.6174" stroke="black" stroke-width="3.125" stroke-miterlimit="10" stroke-linecap="round" stroke-linejoin="round"/>
<path d="M25.021 6.07678H38.771V13.8893" stroke="black" stroke-width="3.125" stroke-miterlimit="10" stroke-linecap="round" stroke-linejoin="round"/>
<path d="M29.2194 1.87827L25.021 6.07671L29.2194 10.2751" stroke="black" stroke-width="3.125" stroke-miterlimit="10" stroke-linecap="round" stroke-linejoin="round"/>
</svg>
