<svg width="40" height="40" viewBox="0 0 40 40" fill="none" xmlns="http://www.w3.org/2000/svg">
<path fill-rule="evenodd" clip-rule="evenodd" d="M28.75 17.5C22.5438 17.5 17.5 22.5413 17.5 28.75C17.5 34.9588 22.5438 40 28.75 40C34.9562 40 40 34.9588 40 28.75C40 22.5413 34.9562 17.5 28.75 17.5ZM28.75 21.25C32.8875 21.25 36.25 24.6106 36.25 28.75C36.25 32.8894 32.8875 36.25 28.75 36.25C24.6125 36.25 21.25 32.8894 21.25 28.75C21.25 24.6106 24.6125 21.25 28.75 21.25ZM15.2937 31.0738C8.74998 30.0175 3.75 24.3375 3.75 17.5C3.75 9.91125 9.9125 3.75 17.5 3.75C24.3375 3.75 30.0187 8.75125 31.075 15.2931C31.2375 16.3144 32.2 17.01 33.225 16.845C34.2438 16.68 34.9375 15.7162 34.775 14.695C33.4313 6.36812 26.2062 0 17.5 0C7.84375 0 0 7.84125 0 17.5C0 26.2038 6.36876 33.4313 14.6938 34.7756C15.7188 34.9406 16.6812 34.245 16.8437 33.2238C17.0125 32.2019 16.3125 31.2388 15.2937 31.0738ZM31.175 25.5494L27.5 29.2231L26.325 28.0494C25.5937 27.3175 24.4063 27.3175 23.675 28.0494C22.9438 28.7806 22.9438 29.9694 23.675 30.7006L26.175 33.2006C26.9063 33.9331 28.0937 33.9331 28.825 33.2006L33.825 28.2006C34.5562 27.4694 34.5562 26.2806 33.825 25.5494C33.0937 24.8175 31.9063 24.8175 31.175 25.5494ZM13.825 23.8256L18.825 18.8256C19.175 18.4744 19.375 17.9975 19.375 17.5V7.5C19.375 6.465 18.5375 5.625 17.5 5.625C16.4625 5.625 15.625 6.465 15.625 7.5V16.7231L11.175 21.1744C10.4438 21.9056 10.4438 23.0944 11.175 23.8256C11.9063 24.5575 13.0937 24.5575 13.825 23.8256Z" fill="black"/>
</svg>
