<svg width="40" height="40" viewBox="0 0 40 40" fill="none" xmlns="http://www.w3.org/2000/svg">
<g clip-path="url(#clip0_203_844)">
<path d="M28.7922 0H28.7711C25.607 0 22.7453 1.31875 20.7055 3.43437C19.9359 3.33594 19.1516 3.28359 18.3547 3.28359C8.21797 3.28359 0 11.5031 0 21.6422C0 31.7812 8.21797 40.0008 18.3555 40.0008C28.493 40.0008 36.7109 31.7812 36.7109 21.6422C36.7109 21.1172 36.6883 20.5977 36.6453 20.0844C39.4016 16.3039 40 13.193 40 11.2094C40 5.02812 34.9727 0 28.7922 0ZM23.6289 23.2094C23.8086 23.3844 23.9883 23.5555 24.1687 23.7203C23.7211 28.5016 21.7211 33.0039 18.4758 36.5508C15.0875 32.8547 13.0867 28.1945 12.7398 23.2094H23.6289ZM12.7297 20.2406C13.0445 15.1687 15.0656 10.4305 18.518 6.68594C17.9055 8.07031 17.5641 9.6 17.5641 11.2086C17.5641 14.7422 19.375 17.9969 21.0375 20.2398H12.7289L12.7297 20.2406ZM7.475 10.7602C9.48828 8.74687 11.9609 7.36094 14.657 6.69844C13.4781 8.28203 12.4914 9.99765 11.7109 11.8305C10.5703 14.5094 9.91562 17.332 9.75625 20.2414H3.03203C3.35313 16.6594 4.90156 13.3344 7.475 10.7609V10.7602ZM3.04688 23.2094H9.76562C10.0648 28.0891 11.757 32.7023 14.6531 36.5844C11.9586 35.9219 9.48672 34.5359 7.47422 32.5234C4.94062 29.9898 3.4 26.7273 3.04609 23.2094H3.04688ZM29.2359 32.5234C27.2961 34.4641 24.9281 35.8211 22.3461 36.5102C24.6812 33.3445 26.2406 29.6727 26.8906 25.7883C27.2008 25.9703 27.5016 26.1266 27.7891 26.2516C28.1063 26.3898 28.4469 26.4586 28.7867 26.4586C29.1266 26.4586 29.468 26.3898 29.7852 26.2516C30.9328 25.7523 32.2969 24.7664 33.6305 23.5086C33.2219 26.9125 31.6969 30.0617 29.2352 32.5242L29.2359 32.5234ZM33.8289 18.8906C32.0148 21.2211 29.9953 22.8445 28.7875 23.4422C27.5781 22.8445 25.5562 21.2203 23.7398 18.8898C21.6719 16.2367 20.5328 13.5086 20.5328 11.2086C20.5328 6.66484 24.2289 2.96875 28.7719 2.96875H28.793C33.3359 2.96875 37.032 6.66562 37.032 11.2086C37.032 13.5094 35.8945 16.2375 33.8297 18.8906H33.8289Z" fill="black"/>
<path d="M28.7821 6.59924C26.2563 6.59924 24.2017 8.65393 24.2017 11.1797C24.2017 13.7055 26.2563 15.7602 28.7821 15.7602C31.3079 15.7602 33.3626 13.7055 33.3626 11.1797C33.3626 8.65393 31.3079 6.59924 28.7821 6.59924ZM28.7821 12.7922C27.8931 12.7922 27.1704 12.0688 27.1704 11.1805C27.1704 10.2922 27.8931 9.56877 28.7821 9.56877C29.6712 9.56877 30.3938 10.2922 30.3938 11.1805C30.3938 12.0688 29.6712 12.7922 28.7821 12.7922Z" fill="black"/>
</g>
<defs>
<clipPath id="clip0_203_844">
<rect width="40" height="40" fill="white"/>
</clipPath>
</defs>
</svg>
