<svg width="37" height="39" viewBox="0 0 37 39" fill="none" xmlns="http://www.w3.org/2000/svg">
<path d="M32.8125 23.125H30.8125C29.0625 23.125 27.5625 24.375 27.1875 26C26.6875 25.8125 26 25.4375 25.25 24.75L22.1875 21.6875C21.875 21.3125 20.75 20.0625 19.1875 19.9375C18.5625 19.875 17.5625 20.0625 16.5625 21C15 22.5625 15.75 24.75 16.4375 25.6875C16.4375 25.6875 16.4375 25.75 16.5 25.75L17.625 27.25C17.0625 27.5 16.1875 27.8125 14.8125 28C11.8125 26.75 10.5 24.875 10.5 24.875C10.375 24.6875 9.1875 23.0625 7.5 22.75C6.6875 22.625 5.875 22.8125 5.1875 23.375C4.5 23.9375 4.0625 24.625 3.875 25.4375C3.5625 25.375 3.25 25.375 2.9375 25.4375C2.125 25.5625 1.4375 26.0625 0.9375 26.8125C0.375 27.625 0.1875 28.5625 0.375 29.4375C0.75 31.125 2.375 32.1875 2.5 32.3125C2.625 32.375 6 34.5625 10.8125 36.125C14.125 37.1875 17.375 37.75 20.4375 37.75C22.9375 37.75 25.3125 37.375 27.5 36.6875C28.0625 37.9375 29.375 38.8125 30.8125 38.8125H32.8125C34.875 38.8125 36.5 37.1875 36.5 35.125V26.8125C36.5 24.75 34.875 23.125 32.8125 23.125ZM6.6875 25.375C6.875 25.25 7 25.25 7.125 25.25C7.5625 25.3125 8.1875 25.9375 8.4375 26.3125C8.5 26.375 8.9375 27.0625 9.9375 27.9375C7.6875 27.5 6.375 26.5625 6.375 26.5625L6.3125 26.5C6.1875 25.875 6.375 25.625 6.6875 25.375ZM27.125 34.125C16.125 38 3.9375 30.3125 3.8125 30.1875C3.625 30.0625 2.875 29.5 2.75 28.875C2.75 28.75 2.75 28.5 2.9375 28.1875C3.0625 28 3.1875 27.9375 3.3125 27.9375C3.75 27.875 4.5625 28.25 4.9375 28.5C5.0625 28.5625 7.8125 30.625 12.5625 30.625C18.625 30.625 20.25 28.5625 20.5 28.1875C20.8125 27.75 20.75 27.1875 20.4375 26.75L18.625 24.3125C18.5625 24.1875 18 23.25 18.5 22.75C18.875 22.375 19.0625 22.4375 19.125 22.4375C19.5625 22.4375 20.125 23 20.3125 23.25L20.4375 23.375L23.5625 26.5C24.9375 27.875 26.25 28.375 27.1875 28.625V34.125H27.125ZM34 35.0625C34 35.6875 33.4375 36.25 32.8125 36.25H30.8125C30.1875 36.25 29.625 35.6875 29.625 35.0625V26.8125C29.625 26.1875 30.1875 25.625 30.8125 25.625H32.8125C33.4375 25.625 34 26.1875 34 26.8125V35.0625Z" fill="black"/>
<path d="M5.25 14.375H6.5V15.625C6.5 17 7.625 18.125 9 18.125H15.25C15.9375 18.125 16.5 17.5625 16.5 16.875V14.375C16.5 14 16.75 13.75 17.125 13.75C17.5 13.75 17.75 14 17.75 14.375V16.875C17.75 17.5625 18.3125 18.125 19 18.125H21.5C22.875 18.125 24 17 24 15.625V10.625H25.25C27 10.625 28.375 9.25 28.375 7.5C28.375 5.75 27 4.375 25.25 4.375H24V3.125C24 1.75 22.875 0.625 21.5 0.625H15.25C14.5625 0.625 14 1.1875 14 1.875V4.375C14 4.75 13.75 5 13.375 5C13 5 12.75 4.75 12.75 4.375V1.875C12.75 1.1875 12.1875 0.625 11.5 0.625H9C7.625 0.625 6.5 1.75 6.5 3.125V8.125H5.25C3.5 8.125 2.125 9.5 2.125 11.25C2.125 13 3.5 14.375 5.25 14.375ZM5.25 10.625H7.75C8.4375 10.625 9 10.0625 9 9.375V3.125H10.25V4.375C10.25 6.125 11.625 7.5 13.375 7.5C15.125 7.5 16.5 6.125 16.5 4.375V3.125H21.5V5.625C21.5 6.3125 22.0625 6.875 22.75 6.875H25.25C25.625 6.875 25.875 7.125 25.875 7.5C25.875 7.875 25.625 8.125 25.25 8.125H22.75C22.0625 8.125 21.5 8.6875 21.5 9.375V15.625H20.25V14.375C20.25 12.625 18.875 11.25 17.125 11.25C15.375 11.25 14 12.625 14 14.375V15.625H9V13.125C9 12.4375 8.4375 11.875 7.75 11.875H5.25C4.875 11.875 4.625 11.625 4.625 11.25C4.625 10.875 4.875 10.625 5.25 10.625Z" fill="black"/>
</svg>
