<svg width="40" height="41" viewBox="0 0 40 41" fill="none" xmlns="http://www.w3.org/2000/svg">
<g clip-path="url(#clip0_203_801)">
<path d="M24.1851 15.7219L26.6671 13.3104C26.9869 12.9994 27.1026 12.5337 26.9655 12.1095C26.8282 11.685 26.462 11.3752 26.0207 11.3102L22.5936 10.807L21.0494 7.69727C20.8513 7.29871 20.4448 7.04663 19.9999 7.04663C19.999 7.04663 19.9978 7.04663 19.9968 7.04663C19.551 7.04785 19.1442 7.30206 18.9477 7.70245L17.4288 10.7997L14.0062 11.2916C13.5647 11.3551 13.1975 11.6636 13.059 12.0875C12.9204 12.5117 13.0346 12.9777 13.3535 13.2893L15.8278 15.709L15.2376 19.1188C15.1613 19.5585 15.3417 20.0032 15.7021 20.2659C16.0625 20.5287 16.541 20.5638 16.9365 20.3566L19.9984 18.7513L23.0626 20.3666C23.4597 20.576 23.9379 20.5391 24.2968 20.2791C24.6581 20.0175 24.8394 19.5735 24.7646 19.1337L24.1851 15.7219ZM22.1099 14.4703C21.8334 14.7392 21.7067 15.1268 21.7711 15.5073L22.0565 17.1867L20.5465 16.3908C20.3756 16.3005 20.1876 16.2556 19.9999 16.2556C19.8131 16.2556 19.6261 16.3002 19.4558 16.3896L17.9525 17.1776L18.2427 15.5015C18.3083 15.1216 18.1829 14.7334 17.9073 14.4636L16.69 13.2737L18.3748 13.0314C18.7584 12.9762 19.0899 12.7351 19.2605 12.3875L20.0066 10.8662L20.7671 12.3982C20.938 12.7421 21.2667 12.9808 21.6463 13.0366L23.3309 13.2838L22.1099 14.4703Z" fill="black"/>
<path d="M36.4935 14.0776C36.4929 14.0776 35.1971 14.0776 35.1971 14.0776C34.9234 10.4561 33.3844 7.08789 30.7916 4.48932C27.9153 1.60663 24.0888 0.0175781 20.0165 0.0151367C20.0128 0.0151367 20.0101 0.0151367 20.0064 0.0151367C15.7593 0.0151367 11.861 1.67621 8.97126 4.70264C8.97126 4.70264 8.28675 4.70264 8.28492 4.70264C7.34772 4.70264 6.46607 5.06793 5.80201 5.73108C5.4242 6.10858 5.14252 6.55719 4.96949 7.04639C4.96949 7.04639 3.51746 7.04639 3.51563 7.04639C1.5799 7.04639 0.00305621 8.62659 4.45318e-06 10.5715C-0.0030473 12.5109 1.56281 14.0746 3.51197 14.0776H4.81995C4.64814 16.4028 4.99268 18.7221 5.83924 20.8589C7.49207 25.0313 10.2091 26.8282 11.1508 27.726C11.377 27.9921 13.4686 29.7872 13.9413 32.9058H12.9468C12.2998 32.9058 11.7749 33.4304 11.7749 34.0776C11.7749 34.7249 12.2998 35.2495 12.9468 35.2495H14.1406V36.4907C14.1376 38.4279 15.676 40.0121 17.627 40.0151H22.3184C24.2682 40.0151 25.8563 38.4435 25.8594 36.5071V35.2495H27.0093C27.6566 35.2495 28.1812 34.7249 28.1812 34.0776C28.1812 33.4304 27.6566 32.9058 27.0093 32.9058H26.0324C26.4731 30.6868 27.7658 28.6031 29.7095 26.9957C31.0129 25.9182 32.117 24.6459 32.9977 23.2109C33.9435 22.8398 34.6915 22.0702 35.0327 21.1089H36.488C38.4219 21.1089 39.997 19.547 40 17.6247C40.0034 15.6816 38.4372 14.0807 36.4935 14.0776ZM6.185 11.7067C6.08185 11.7025 5.98053 11.7119 5.88318 11.7339H3.5138C2.86438 11.733 2.34284 11.2209 2.34375 10.5751C2.34498 9.92145 2.87018 9.39014 3.51746 9.39014H5.94117C6.58753 9.39014 7.11213 8.86646 7.11304 8.22009C7.11365 7.90637 7.23633 7.61127 7.4585 7.3894C7.67975 7.16815 7.97333 7.04639 8.28675 7.04639H10.6305C11.2726 7.0473 11.7981 7.59265 11.7969 8.24603C11.796 8.88782 11.283 9.39014 10.6271 9.39014C10.6265 9.39014 8.28125 9.39014 8.28125 9.39014C7.63489 9.39014 7.1106 9.91351 7.10938 10.5602C7.10846 11.122 6.71265 11.592 6.185 11.7067ZM16.2732 32.6488C16.0458 31.0506 15.4501 29.5183 14.5392 28.1401H18.8281V32.9058H16.3141L16.2732 32.6488ZM23.5156 36.5053C23.5147 37.1486 22.9776 37.6714 22.3163 37.6714C22.3157 37.6714 17.6288 37.6714 17.6288 37.6714C16.9809 37.6705 16.4832 37.141 16.4844 36.4925V35.2495H23.5156V36.5053ZM23.6536 32.9058H21.1719V28.1392H25.5393C24.5624 29.6044 23.9154 31.2249 23.6536 32.9058ZM27.5278 25.7964H12.5159C12.3294 25.6279 12.1378 25.4637 11.9397 25.3044C8.46528 22.5127 6.72516 18.275 7.19239 13.8454C8.14972 13.478 8.90747 12.7034 9.25141 11.7339H10.629C12.5629 11.7339 14.1376 10.1723 14.1406 8.25C14.1431 6.82422 13.3014 5.59039 12.0978 5.02795C14.3338 3.29364 17.0709 2.35889 20.0064 2.35889H20.015C23.4607 2.36102 26.6986 3.70563 29.1324 6.1449C31.3333 8.35071 32.6373 11.2123 32.8629 14.2879C31.9101 14.6349 31.1081 15.4106 30.7507 16.4214C30.7507 16.4214 29.3768 16.4214 29.375 16.4214C27.4393 16.4214 25.8624 18.0016 25.8594 19.9465C25.8563 21.8859 27.4222 23.449 29.3713 23.4517H29.9521C28.9343 24.684 28.2764 25.0923 27.5278 25.7964ZM36.4865 18.7651C36.4859 18.7651 34.0625 18.7651 34.0625 18.7651C33.4161 18.7651 32.8918 19.2885 32.8906 19.9352C32.8897 20.5828 32.3642 21.1089 31.7169 21.1089C31.7166 21.1089 29.3732 21.1089 29.3732 21.1089C28.7238 21.108 28.2022 20.5959 28.2031 19.9501C28.2044 19.2964 28.7296 18.7651 29.3768 18.7651H31.7224C32.3688 18.7651 32.8934 18.2415 32.8943 17.5951C32.8952 17.0043 33.3325 16.4968 33.9151 16.4214C33.9652 16.4281 36.4899 16.4214 36.4899 16.4214C37.132 16.4223 37.6572 16.9677 37.6563 17.621C37.6553 18.2631 37.1423 18.7651 36.4865 18.7651Z" fill="black"/>
</g>
<defs>
<clipPath id="clip0_203_801">
<rect width="40" height="40" fill="white" transform="translate(0 0.0151367)"/>
</clipPath>
</defs>
</svg>
