<svg width="40" height="40" viewBox="0 0 40 40" fill="none" xmlns="http://www.w3.org/2000/svg">
<path d="M22.8573 24.2866C22.0687 24.2866 21.4287 24.9252 21.4287 25.7152V30.0011C21.4287 30.7911 22.0687 31.4297 22.8573 31.4297C23.6459 31.4297 24.286 30.7911 24.286 30.0011V25.7152C24.286 24.9252 23.6459 24.2866 22.8573 24.2866Z" fill="black"/>
<path d="M27.1435 22.8579C26.3549 22.8579 25.7148 23.4965 25.7148 24.2865V30.001C25.7148 30.7911 26.3549 31.4296 27.1435 31.4296C27.9321 31.4296 28.5721 30.7911 28.5721 30.001V24.2865C28.5721 23.4965 27.9321 22.8579 27.1435 22.8579Z" fill="black"/>
<path d="M31.4291 21.4293C30.6405 21.4293 30.0005 22.0679 30.0005 22.8579V30.0011C30.0005 30.7911 30.6405 31.4297 31.4291 31.4297C32.2177 31.4297 32.8577 30.7911 32.8577 30.0011V22.8579C32.8577 22.0679 32.2177 21.4293 31.4291 21.4293Z" fill="black"/>
<path d="M38.5723 32.8583H37.1437V21.4736C37.1437 19.575 35.9208 17.9764 34.2365 17.3935C34.2507 17.3092 34.2865 17.232 34.2865 17.1435C34.2865 15.0905 35.0293 14.1348 36.7251 12.439C36.818 12.3462 36.8723 12.2319 36.9351 12.1233C37.9366 11.249 38.5723 9.97178 38.5723 8.57173C38.5723 6.23737 36.8294 4.22729 34.5165 3.89585L27.3448 2.87153C26.9376 2.81153 26.5205 2.93582 26.2076 3.20583C25.8947 3.4787 25.7147 3.87157 25.7147 4.28587C23.3518 4.28587 21.4288 6.20879 21.4288 8.57173C21.4288 10.9347 23.3518 12.8576 25.7147 12.8576C25.7147 13.2719 25.8947 13.6648 26.2076 13.9376C26.469 14.1634 26.8019 14.2862 27.1433 14.2862C27.2105 14.2862 27.2776 14.2819 27.3448 14.2719L32.2278 13.5748C31.7335 14.5591 31.4292 15.6891 31.4292 17.1435H17.3144C15.0443 11.9219 11.4113 7.31169 6.70261 3.88871L5.28541 2.85724H5.714C6.5026 2.85724 7.14262 2.21865 7.14262 1.42862C7.14262 0.638594 6.5026 0 5.714 0H1.42813C0.639535 0 -0.000488281 0.638594 -0.000488281 1.42862V5.71449C-0.000488281 6.50452 0.639535 7.14311 1.42813 7.14311C2.21673 7.14311 2.85676 6.50452 2.85676 5.71449V4.62302L5.02255 6.19736C8.9684 9.06604 12.0771 12.8533 14.1629 17.142H12.8571C10.4542 17.142 8.57125 19.0235 8.57125 21.4279V32.8569H7.14262C6.35402 32.8569 5.714 33.4955 5.714 34.2855C5.714 37.437 8.27695 40 11.4285 40H34.2865C37.438 40 40.0009 37.437 40.0009 34.2855C40.0009 33.4969 39.3609 32.8583 38.5723 32.8583ZM24.2861 8.57173C24.2861 7.78313 24.9275 7.14311 25.7147 7.14311V10.0004C24.9275 10.0004 24.2861 9.36033 24.2861 8.57173ZM28.572 5.93307L34.1122 6.72452C35.0265 6.85596 35.7151 7.64884 35.7151 8.57173C35.7151 9.49462 35.0265 10.2875 34.1136 10.4189L28.572 11.2104V5.93307ZM11.4285 21.4293C11.4285 20.615 12.0428 20.0007 12.8571 20.0007H15.3772C16.5258 23.1737 17.143 26.5538 17.143 30.0011C17.143 30.7911 17.783 31.4297 18.5716 31.4297C19.3602 31.4297 20.0002 30.7911 20.0002 30.0011C20.0002 26.5681 19.4359 23.198 18.3902 20.0007H32.8578C33.6593 20.0007 34.2865 20.6479 34.2865 21.4736V32.8583H11.4285V21.4293ZM34.2865 37.1442H11.4285C10.3727 37.1442 9.44985 36.5699 8.95555 35.7156H36.7608C36.2651 36.5699 35.3422 37.1442 34.2865 37.1442Z" fill="black"/>
<path d="M8.57125 12.8576C8.57125 10.4947 6.64832 8.57178 4.28538 8.57178C1.92244 8.57178 -0.000488281 10.4947 -0.000488281 12.8576C-0.000488281 15.2206 1.92244 17.1435 4.28538 17.1435C6.64832 17.1435 8.57125 15.2206 8.57125 12.8576ZM4.28538 14.2863C3.49821 14.2863 2.85676 13.6462 2.85676 12.8576C2.85676 12.069 3.49821 11.429 4.28538 11.429C5.07255 11.429 5.714 12.069 5.714 12.8576C5.714 13.6462 5.07255 14.2863 4.28538 14.2863Z" fill="black"/>
<path d="M13.2759 8.15311C13.5545 8.43169 13.9202 8.57169 14.2859 8.57169C14.6516 8.57169 15.0174 8.43169 15.2959 8.15311L16.4288 7.02021L17.5617 8.15311C17.8403 8.43169 18.2061 8.57169 18.5718 8.57169C18.9375 8.57169 19.3032 8.43169 19.5818 8.15311C20.1404 7.59451 20.1404 6.69163 19.5818 6.13303L18.4489 5.00014L19.5818 3.86724C20.1404 3.30865 20.1404 2.40576 19.5818 1.84717C19.0232 1.28857 18.1203 1.28857 17.5617 1.84717L16.4288 2.98006L15.2959 1.84717C14.7374 1.28857 13.8345 1.28857 13.2759 1.84717C12.7173 2.40576 12.7173 3.30865 13.2759 3.86724L14.4088 5.00014L13.2759 6.13303C12.7173 6.69163 12.7173 7.59451 13.2759 8.15311Z" fill="black"/>
</svg>
