<svg width="36" height="40" viewBox="0 0 36 40" fill="none" xmlns="http://www.w3.org/2000/svg">
<path d="M23.5761 27.3056C22.8005 27.0561 22.1887 26.3847 22.1887 25.5699C22.1887 25.0565 22.4399 24.5821 22.8139 24.2304C24.1793 22.9466 25.0334 21.125 25.0334 19.1074C25.0334 17.4895 25.3506 15.862 25.1746 14.2537C25.0771 13.3634 24.8148 12.4912 24.392 11.6799C23.5455 10.0557 22.1311 8.81775 20.409 8.19399C17.913 7.09228 15.0017 7.27459 12.8091 8.95869L9.47148 11.4706C8.2784 12.3142 8.40045 14.2789 9.68857 14.9686L10.9516 15.6937C10.96 15.6985 10.9652 15.7073 10.9652 15.7169V19.1073C10.9652 21.1256 11.8198 22.9478 13.186 24.2317C13.5601 24.5831 13.8113 25.0574 13.8113 25.5707C13.8113 26.385 13.1999 27.056 12.4247 27.3053C9.21975 28.3359 6.89404 31.3457 6.89404 34.8887V38.7666C6.89404 39.4478 7.44628 40.0001 8.1275 40.0001C8.80873 40.0001 9.36097 39.4478 9.36097 38.7666V34.8888C9.36097 32.7582 10.5795 30.9068 12.3562 29.9948C13.5403 29.387 14.8953 30.01 15.7637 31.0187L15.9667 31.2545C16.4827 31.8539 16.7665 32.6186 16.7665 33.4095V35.4788C16.7665 36.16 17.3188 36.7123 18 36.7123C18.6812 36.7123 19.2334 36.16 19.2334 35.4788V33.4307C19.2334 32.6321 19.5246 31.8609 20.0525 31.2616L20.2712 31.0133C21.1538 30.0112 22.52 29.4009 23.7007 30.0245C25.4464 30.9466 26.6389 32.7811 26.6389 34.8889V38.7666C26.6389 39.4478 27.1912 40.0001 27.8724 40.0001C28.5536 40.0001 29.1058 39.4478 29.1058 38.7666V34.8888C29.1059 31.3461 26.7806 28.3365 23.5761 27.3056ZM14.7027 14.556C13.0072 14.1654 12.9024 11.9761 14.2926 10.9298C15.8222 9.73732 17.8521 9.72894 19.5688 10.5135C21.279 11.133 22.4301 12.5964 22.6958 14.278C22.707 14.3489 22.6364 14.4048 22.5688 14.3808C19.4911 13.4527 17.8942 15.2914 14.7027 14.556ZM19.7217 27.4573C19.7217 27.7456 19.6166 28.024 19.426 28.2404L19.2983 28.3854C18.6178 29.1581 17.4113 29.1513 16.7395 28.3709L16.5561 28.1579C16.3769 27.9497 16.2783 27.6841 16.2783 27.4094C16.2783 26.6591 16.9927 26.109 17.7425 26.1354C17.8979 26.1409 18.0538 26.1414 18.2094 26.1369C18.9838 26.1145 19.7217 26.6826 19.7217 27.4573ZM18.9986 22.6157C19.4143 22.6157 19.7926 22.4755 20.0752 22.2462C20.1737 22.1662 20.2928 22.1111 20.4198 22.1111C20.8156 22.1111 21.0075 22.562 20.6881 22.7958C19.9334 23.3479 19.0039 23.6744 17.9993 23.6744C15.481 23.6744 13.4322 21.6256 13.4322 19.1073V17.5335C13.4322 17.1404 13.8097 16.8571 14.1941 16.9393C14.4175 16.9872 14.6421 17.0281 14.8675 17.0625C14.8686 17.0627 14.8697 17.0618 14.8697 17.0607C14.8697 17.0595 14.8707 17.0586 14.8719 17.0588C16.5531 17.3135 18.2885 17.1906 19.9377 16.6729C20.2121 16.5869 20.4924 16.5438 20.7698 16.5413C21.998 16.5299 22.5664 17.8791 22.5664 19.1072C22.5664 19.8512 21.8798 20.3489 21.1359 20.3489H21.0103C20.5065 20.3489 20.0372 20.0919 19.559 19.9335C19.3848 19.8758 19.1959 19.8442 18.9986 19.8442C18.124 19.8442 17.415 20.4647 17.415 21.2299C17.415 21.9954 18.124 22.6157 18.9986 22.6157Z" fill="black"/>
<path d="M31.5155 27.5638C30.9325 27.9162 30.1742 27.7292 29.8218 27.1462L28.4278 24.8397C28.1989 24.4609 28.1905 23.9885 28.4057 23.6017C28.8525 22.7993 29.206 21.9469 29.4564 21.0681C29.5778 20.6421 29.9183 20.3138 30.3484 20.2082L31.5497 19.9132C32.5313 19.6722 33.2214 18.7921 33.2214 17.7814C33.2214 16.7707 32.5313 15.8906 31.5498 15.6495L30.3594 15.3572C29.9279 15.2512 29.5867 14.9214 29.4663 14.4938C29.2187 13.6148 28.8678 12.7613 28.4231 11.957C28.2095 11.5708 28.2186 11.0999 28.4469 10.7222L29.1032 9.63621C29.6219 8.77799 29.4894 7.67685 28.7819 6.96618C28.0695 6.25051 26.9593 6.11666 26.0972 6.6425L25.0508 7.28077C24.6697 7.51316 24.1931 7.52154 23.8043 7.30308C23.0061 6.85462 22.1584 6.49983 21.2847 6.24863C20.8591 6.12633 20.5318 5.78513 20.427 5.35487L20.1279 4.12558C19.891 3.15217 19.0191 2.46701 18.0173 2.46701C17.0155 2.46701 16.1436 3.15216 15.9067 4.12557L15.6102 5.34393C15.5053 5.77547 15.1763 6.11727 14.7491 6.23872C13.875 6.48727 13.0262 6.83957 12.2263 7.28573C11.838 7.50239 11.363 7.49333 10.9831 7.26162L9.92725 6.61762C9.06518 6.09184 7.95505 6.22571 7.24268 6.94135C6.53528 7.65199 6.40279 8.75308 6.92142 9.61125L7.57212 10.688C7.8011 11.0668 7.80947 11.5392 7.59426 11.926C7.14734 12.7286 6.79392 13.581 6.54349 14.4596C6.42212 14.8856 6.08161 15.2138 5.65144 15.3195L4.45019 15.6145C3.46864 15.8556 2.77853 16.7357 2.77853 17.7464C2.77853 18.7571 3.46863 19.6372 4.45018 19.8782L5.64058 20.1706C6.07204 20.2766 6.41323 20.6064 6.53366 21.034C6.78118 21.9129 7.13221 22.7664 7.57691 23.5709C7.79041 23.9571 7.78127 24.4279 7.55298 24.8056L6.15337 27.1214C5.80101 27.7045 5.04273 27.8915 4.45971 27.5391C3.8767 27.1867 3.6897 26.4285 4.04204 25.8455L4.60328 24.9168C4.90262 24.4214 4.92272 23.8101 4.70235 23.2749C4.48061 22.7364 4.03233 22.3159 3.46677 22.177L1.25084 21.6328C0.699301 21.4974 0.311523 21.0028 0.311523 20.435V15.0579C0.311523 14.4899 0.699301 13.9955 1.25084 13.86L3.48304 13.3118C4.0469 13.1733 4.49431 12.7547 4.71675 12.2184C4.9391 11.6823 4.91978 11.0691 4.61962 10.5723L3.42887 8.60171C3.13588 8.11692 3.21067 7.49496 3.61033 7.09351L7.3952 3.29128C7.79759 2.88709 8.4246 2.81137 8.91169 3.10846L10.8813 4.30972C11.3734 4.60985 11.9828 4.63011 12.5152 4.4092C13.0465 4.18874 13.4605 3.74503 13.5965 3.18615L14.1426 0.94188C14.2772 0.38906 14.7723 0 15.3412 0H20.6937C21.2626 0 21.7578 0.38906 21.8923 0.94188L22.4424 3.2025C22.578 3.7597 22.9901 4.20259 23.5192 4.42374C24.0526 4.64668 24.664 4.62714 25.1575 4.32611L27.113 3.13342C27.6001 2.83632 28.227 2.91205 28.6295 3.31624L32.4143 7.11846C32.814 7.51992 32.8888 8.14188 32.5958 8.62667L31.3967 10.6109C31.0973 11.1063 31.0772 11.7177 31.2976 12.2529C31.5194 12.7914 31.9676 13.212 32.5332 13.3509L34.7491 13.895C35.3007 14.0305 35.6884 14.525 35.6884 15.0929V20.47C35.6884 21.038 35.3007 21.5324 34.7491 21.6679L32.5169 22.216C31.953 22.3545 31.5056 22.7731 31.2832 23.3094C31.0608 23.8455 31.0802 24.4587 31.3804 24.9555L31.9332 25.8701C32.2855 26.4532 32.0986 27.2115 31.5155 27.5638Z" fill="black"/>
</svg>
