<svg width="190" height="63" viewBox="0 0 190 63" fill="none" xmlns="http://www.w3.org/2000/svg">
<path d="M27.6531 0.488705C24.8702 1.96981 23.9905 2.45858 23.9905 2.54744C23.9905 2.6067 24.0864 2.74 24.1985 2.84367C24.2944 2.94734 24.4864 3.21394 24.6142 3.43611C24.7422 3.65827 24.9662 3.98413 25.142 4.13223C25.302 4.29516 25.4299 4.45807 25.4299 4.50251C25.4299 4.68024 27.6211 7.44992 27.7491 7.44992C27.8769 7.4351 31.2356 1.0219 31.1397 0.947848C30.7078 0.651626 29.1885 -6.10352e-05 28.9166 -6.10352e-05C28.7087 0.01475 28.1489 0.222106 27.6531 0.488705Z" fill="#221022"/>
<path d="M31.3477 2.85851C30.9638 3.59906 30.1481 5.18385 29.5563 6.35392C28.9486 7.53881 28.5007 8.5904 28.5487 8.70888C28.5967 8.82737 29.0765 9.50868 29.6043 10.2048C30.1321 10.9009 32.0674 13.5077 33.9066 15.9959C35.7458 18.4694 37.3133 20.5281 37.3772 20.5429C37.4413 20.5578 38.4168 19.0026 39.5524 17.0623C40.6719 15.1369 42.2713 12.3968 43.103 10.9898C43.9347 9.56793 44.6223 8.36823 44.6223 8.3238C44.6223 8.23493 40.7999 6.13175 38.2409 4.81357C37.9211 4.65065 36.9774 4.13226 36.1458 3.67312C35.314 3.21398 34.3384 2.69558 33.9866 2.51785C33.6347 2.34012 33.0589 2.02909 32.6911 1.83655L32.0354 1.48108L31.3477 2.85851Z" fill="#221022"/>
<path d="M21.9114 3.5842C21.3356 3.91004 20.5199 4.36918 20.0721 4.59135C19.6403 4.81351 18.5207 5.42077 17.5931 5.92434C16.6655 6.44274 15.5938 7.02037 15.194 7.22773C14.7942 7.43507 13.1149 8.33856 11.4355 9.25684C9.77215 10.1603 6.74934 11.8044 4.71813 12.8856C2.70293 13.9667 0.799685 15.0036 0.527791 15.1664L0 15.4775V16.8549V18.2323L2.38306 20.928C6.52542 25.6231 12.3631 32.214 12.5391 32.3918C12.6351 32.4806 13.0669 32.9694 13.4987 33.4582L14.2983 34.3616L14.7142 33.5026C14.9541 33.0435 16.0577 30.8218 17.1772 28.5853C18.2968 26.3488 19.3044 24.3493 19.4323 24.1419C19.6083 23.8161 23.6867 15.7885 24.9501 13.2558C25.19 12.767 25.7978 11.5822 26.2936 10.6047C26.7895 9.64193 27.1893 8.78289 27.1893 8.72364C27.1893 8.57553 23.4468 3.4509 23.1268 3.15467C22.999 3.03618 22.695 3.13987 21.9114 3.5842Z" fill="#221022"/>
<path d="M43.5829 12.1005C42.5433 13.8778 41.4556 15.7293 41.1678 16.218C40.8959 16.7068 40.0803 18.099 39.3606 19.2987C38.6568 20.5133 38.0651 21.5352 38.0651 21.5648C38.0651 21.6685 38.9767 22.8978 39.2326 23.1348C39.3606 23.2385 39.5525 23.5051 39.6644 23.6976C39.7763 23.905 41.4556 26.2007 43.391 28.8074C45.3262 31.4142 47.4533 34.2727 48.1091 35.1762C51.3877 39.6343 52.6673 41.3228 52.6993 41.2932C52.7152 41.2636 53.8988 39.2789 55.3222 36.8647L57.8972 32.4806V23.9791V15.4627L56.6656 14.7814C55.1463 13.9519 50.8599 11.6414 49.9644 11.1674C49.6124 10.9897 48.5249 10.3973 47.5653 9.86407C46.6057 9.33087 45.742 8.88654 45.6461 8.88654C45.5501 8.88654 44.6224 10.338 43.5829 12.1005Z" fill="#221022"/>
<path d="M24.5503 16.2477C22.711 19.906 20.6797 23.905 20.04 25.1639C19.4003 26.4081 18.8725 27.4597 18.8725 27.4745C18.8725 27.5041 18.4087 28.4076 17.8649 29.4888C15.8977 33.3249 15.0341 35.043 15.0341 35.1466C15.0341 35.2355 17.1771 37.6793 20.6958 41.6191C21.3035 42.3152 22.1512 43.2631 22.5671 43.737L23.3348 44.5813L23.8785 43.663C24.8861 41.9746 25.27 41.3081 29.2204 34.5838C33.8106 26.7784 33.8906 26.6302 35.5379 23.8754C36.2256 22.7201 36.7854 21.6981 36.7854 21.6241C36.7854 21.5501 36.6895 21.402 36.5615 21.2982C36.4496 21.1798 36.2576 20.928 36.1297 20.7206C36.0018 20.5133 34.8982 18.9877 33.6667 17.3289C32.4351 15.6701 30.9638 13.6854 30.388 12.9003C28.8206 10.7676 27.9569 9.62714 27.9249 9.62714C27.9089 9.62714 26.3895 12.6042 24.5503 16.2477Z" fill="#221022"/>
<path d="M0.0320194 33.2508L0.0800005 46.6993L2.20716 47.8546C3.37471 48.4914 4.78215 49.232 5.34193 49.5283L6.34953 50.0466L9.32436 44.1666C10.9557 40.9378 12.6351 37.6202 13.0349 36.8055C13.4987 35.9021 13.7387 35.2652 13.6427 35.1615C13.5786 35.0578 13.0829 34.495 12.5391 33.8878C12.0113 33.2953 9.56426 30.5404 7.11723 27.7708C0.559811 20.3652 0.591798 20.3948 0.271925 20.0838C0.0160258 19.8024 3.21344e-05 20.3948 0.0320194 33.2508Z" fill="#221022"/>
<path d="M36.5777 24.0383C36.0818 24.8826 35.666 25.6232 35.666 25.6824C35.666 25.7416 35.586 25.8601 35.506 25.9638C35.3621 26.1119 34.3545 27.8004 31.6516 32.4362C31.3316 32.9694 29.5244 36.0501 27.6211 39.279C25.7179 42.5078 24.1345 45.2182 24.1185 45.2774C24.0865 45.3515 26.1658 47.7657 28.7088 50.6539C31.2677 53.5273 33.8746 56.4894 34.5145 57.23C35.1542 57.9706 35.7779 58.563 35.8739 58.5333C35.9699 58.5038 36.4497 58.2667 36.9454 57.9854C37.4252 57.7188 39.5205 56.5783 41.5836 55.4674C43.6468 54.3566 45.4542 53.3346 45.5981 53.2013C45.742 53.068 46.1098 52.5201 46.4297 51.9869C48.8447 47.8249 51.8836 42.7003 52.0115 42.5522C52.1875 42.3448 51.7397 41.6931 46.1578 34.2136C43.167 30.1849 41.8395 28.3928 39.1046 24.6604C38.3369 23.594 37.6492 22.6906 37.5853 22.6165C37.5373 22.5573 37.0734 23.1941 36.5777 24.0383Z" fill="#221022"/>
<path d="M56.9375 36.0945C56.4577 36.9684 55.9939 37.7386 55.9299 37.8274C55.594 38.2422 53.4189 42.019 53.4189 42.1819C53.4189 42.4189 56.9055 47.0992 57.0974 47.0992C57.1615 47.0992 57.3693 46.9807 57.5613 46.8326C57.8971 46.5808 57.8971 46.5512 57.8651 40.5379L57.8171 34.5098L56.9375 36.0945Z" fill="#221022"/>
<path d="M13.9945 37.072C13.7546 37.5757 12.1232 40.8193 10.3799 44.2702C8.63661 47.736 7.21318 50.565 7.24516 50.5797C7.27715 50.6094 8.86052 51.4536 10.076 52.1054C10.3799 52.2682 11.7234 52.9791 13.0349 53.705C14.3624 54.4159 15.7378 55.1564 16.1057 55.349L16.7774 55.7044L17.0014 55.3638C17.1933 55.0824 19.3684 51.3795 22.2152 46.4919L22.775 45.5143L22.2313 44.8627C21.6235 44.1369 17.4171 39.3678 17.2732 39.2493C17.2252 39.2048 16.6335 38.5236 15.9458 37.7238C15.242 36.9387 14.6342 36.2575 14.5703 36.2278C14.5063 36.1834 14.2504 36.5685 13.9945 37.072Z" fill="#FF005C"/>
<path d="M50.1083 47.6472C48.6848 50.0762 47.5492 52.0757 47.5812 52.1054C47.6133 52.1498 48.381 51.7795 49.2926 51.2907C53.5789 48.9951 55.754 47.8101 55.882 47.6916C55.9779 47.6028 55.4342 46.729 54.4585 45.396C53.5948 44.211 52.8432 43.2483 52.7952 43.2483C52.7472 43.2483 51.5316 45.233 50.1083 47.6472Z" fill="#221022"/>
<path d="M23.0629 46.9806C22.663 47.736 21.8793 49.069 19.8322 52.5053C17.625 56.2228 17.673 56.1191 17.8489 56.2672C17.9289 56.3413 18.6806 56.756 19.5123 57.2152C20.3439 57.6595 21.8474 58.4593 22.8389 59.0073C23.8305 59.5405 24.9501 60.1478 25.318 60.3403C25.6859 60.5328 26.5495 60.992 27.2372 61.377C27.9249 61.7474 28.6766 62.0584 28.9165 62.0584C29.1564 62.0584 29.9241 61.7474 30.6279 61.377C31.3315 61.0068 32.2272 60.5328 32.5951 60.3255C34.2104 59.4813 34.7543 59.1702 34.7702 59.0814C34.7862 59.0221 34.5303 58.6963 34.1945 58.3408C33.8745 57.9853 32.0513 55.9266 30.1481 53.7642C28.2289 51.6017 25.9737 49.0542 25.126 48.1064C24.2783 47.1436 23.5586 46.3586 23.4947 46.3586C23.4467 46.3586 23.2548 46.6401 23.0629 46.9806Z" fill="#221022"/>
<path d="M86.9299 37.8834V38.5292H82.7106L81.785 36.2043H75.5852L74.6596 38.5292H70.4403V37.8834L76.2956 24.4076H81.0746L86.9299 37.8834ZM80.3427 32.6309L78.6851 28.5192L77.0275 32.6309H80.3427ZM101.429 24.4076V28.2824H92.6675V29.9185H100.998V33.7933H92.6675V38.5292H88.3406V24.4076H101.429ZM128.296 24.4076V28.2824H119.534V29.9185H127.865V33.7933H119.534V38.5292H115.207V24.4076H128.296ZM134.691 24.4076V34.6544H143.453V38.5292H130.364V24.4076H134.691ZM158.232 24.4076V28.1102H149.47V29.6386H157.801V33.2767H149.47V34.8266H158.232V38.5292H145.143V24.4076H158.232ZM176.307 25.0534L171.054 31.4684L176.307 37.8834V38.5292H171.313L168.127 34.5252L164.962 38.5292H159.968V37.8834L165.22 31.4684L159.968 25.0534V24.4076H164.962L168.127 28.4116L171.313 24.4076H176.307V25.0534Z" fill="#221022"/>
<path d="M109.547 28.6484C109.547 30.227 108.815 31.167 107.351 31.4684C108.815 31.7698 109.547 32.7098 109.547 34.2884V35.6231C109.547 36.0967 109.841 36.3335 110.429 36.3335H113.142V40.0576H109.654C108.836 40.0576 108.097 39.8854 107.437 39.541C106.791 39.2109 106.282 38.7517 105.909 38.1633C105.55 37.5605 105.371 36.886 105.371 36.1397V34.0516C105.371 33.822 105.292 33.6426 105.134 33.5135C104.976 33.3843 104.761 33.3197 104.488 33.3197H103.003V29.6171H104.488C104.761 29.6171 104.976 29.5525 105.134 29.4233C105.292 29.2942 105.371 29.1148 105.371 28.8852V26.7971C105.371 26.0508 105.55 25.3834 105.909 24.795C106.282 24.1923 106.791 23.7259 107.437 23.3958C108.097 23.0514 108.836 22.8791 109.654 22.8791H113.142V26.5818H110.429C110.142 26.5818 109.92 26.6464 109.762 26.7755C109.619 26.9047 109.547 27.0841 109.547 27.3137V28.6484ZM187.788 29.6171V33.3197H186.302C186.03 33.3197 185.815 33.3843 185.657 33.5135C185.499 33.6426 185.42 33.822 185.42 34.0516V36.1397C185.42 36.886 185.233 37.5605 184.86 38.1633C184.501 38.7517 183.992 39.2109 183.332 39.541C182.686 39.8854 181.954 40.0576 181.136 40.0576H177.649V36.355H180.361C180.648 36.355 180.863 36.2904 181.007 36.1613C181.165 36.0321 181.244 35.8527 181.244 35.6231V34.2884C181.244 32.7098 181.976 31.7698 183.439 31.4684C181.976 31.167 181.244 30.227 181.244 28.6484V27.3137C181.244 26.8401 180.949 26.6033 180.361 26.6033H177.649V22.8791H181.136C181.954 22.8791 182.686 23.0514 183.332 23.3958C183.992 23.7259 184.501 24.1923 184.86 24.795C185.233 25.3834 185.42 26.0508 185.42 26.7971V28.8852C185.42 29.1148 185.499 29.2942 185.657 29.4233C185.815 29.5525 186.03 29.6171 186.302 29.6171H187.788Z" fill="#FF005C"/>
</svg>
